AtkinsonHyperlegibleMono-Light.sfdir
StartChar: exclam
Encoding: 33 33 254
Width: 632
GlyphClass: 1
Flags: W
LayerCount: 2
Fore
SplineSet
280 497 m 1,0,-1
 280 668 l 1,1,-1
 351 668 l 1,2,-1
 351 497 l 1,3,-1
 336 181 l 1,4,-1
 295 181 l 1,5,-1
 280 497 l 1,0,-1
277.5 4.5 m 128,-1,7
 261 21 261 21 261 43 c 0,8,9
 261 66 261 66 277.5 82 c 128,-1,10
 294 98 294 98 316 98 c 0,11,12
 339 98 339 98 355 82 c 128,-1,13
 371 66 371 66 371 43 c 0,14,15
 371 21 371 21 355 4.5 c 128,-1,16
 339 -12 339 -12 316 -12 c 0,17,6
 294 -12 294 -12 277.5 4.5 c 128,-1,7
EndSplineSet
EndChar
StartChar: quotedbl
Encoding: 34 34 284
Width: 632
GlyphClass: 1
Flags: W
LayerCount: 2
Fore
SplineSet
193 668 m 1,0,-1
 265 668 l 1,1,-1
 248 430 l 1,2,-1
 210 430 l 1,3,-1
 193 668 l 1,0,-1
367 668 m 1,4,-1
 439 668 l 1,5,-1
 422 430 l 1,6,-1
 384 430 l 1,7,-1
 367 668 l 1,4,-1
EndSplineSet
EndChar
StartChar: dollar
Encoding: 36 36 304
Width: 632
GlyphClass: 1
Flags: W
LayerCount: 2
Fore
SplineSet
151 34 m 128,-1,1
 89 73 89 73 68 143 c 1,2,-1
 134 168 l 1,3,4
 148 115 148 115 190 84.5 c 128,-1,5
 232 54 232 54 288 47 c 1,6,-1
 288 323 l 1,7,-1
 255 330 l 2,8,9
 174 350 174 350 129 389 c 128,-1,10
 84 428 84 428 84 498 c 0,11,12
 84 547 84 547 110.5 586.5 c 128,-1,13
 137 626 137 626 183.5 650 c 128,-1,14
 230 674 230 674 288 679 c 1,15,-1
 288 758 l 1,16,-1
 331 758 l 1,17,-1
 331 680 l 1,18,19
 400 677 400 677 455.5 647 c 128,-1,20
 511 617 511 617 539 561 c 1,21,-1
 473 535 l 1,22,23
 454 573 454 573 415 595.5 c 128,-1,24
 376 618 376 618 331 621 c 1,25,-1
 331 378 l 1,26,-1
 365 369 l 2,27,28
 466 345 466 345 515.5 304.5 c 128,-1,29
 565 264 565 264 565 185 c 0,30,31
 565 129 565 129 533.5 85.5 c 128,-1,32
 502 42 502 42 448.5 17 c 128,-1,33
 395 -8 395 -8 331 -12 c 1,34,-1
 331 -90 l 1,35,-1
 288 -90 l 1,36,-1
 288 -11 l 1,37,0
 213 -5 213 -5 151 34 c 128,-1,1
448.5 85.5 m 128,-1,39
 494 122 494 122 494 185 c 0,40,41
 494 231 494 231 462 259 c 128,-1,42
 430 287 430 287 353 306 c 2,43,-1
 331 312 l 1,44,-1
 331 46 l 1,45,38
 403 49 403 49 448.5 85.5 c 128,-1,39
191.5 583.5 m 128,-1,47
 154 552 154 552 154 500 c 0,48,49
 154 460 154 460 184.5 432.5 c 128,-1,50
 215 405 215 405 268 393 c 2,51,-1
 288 388 l 1,52,-1
 288 621 l 1,53,46
 229 615 229 615 191.5 583.5 c 128,-1,47
EndSplineSet
EndChar
StartChar: ampersand
Encoding: 38 38 289
Width: 632
GlyphClass: 1
Flags: W
LayerCount: 2
Fore
SplineSet
78.5 39.5 m 128,-1,1
 22 90 22 90 22 177 c 0,2,3
 22 311 22 311 197 386 c 1,4,5
 162 426 162 426 142.5 463 c 128,-1,6
 123 500 123 500 123 538 c 0,7,8
 123 579 123 579 143 612.5 c 128,-1,9
 163 646 163 646 199 665.5 c 128,-1,10
 235 685 235 685 281 685 c 0,11,12
 320 685 320 685 355 669 c 128,-1,13
 390 653 390 653 412 620 c 128,-1,14
 434 587 434 587 434 539 c 0,15,16
 434 481 434 481 395 438.5 c 128,-1,17
 356 396 356 396 295 369 c 1,18,-1
 444 201 l 1,19,20
 468 261 468 261 471 344 c 1,21,-1
 535 344 l 1,22,23
 532 234 532 234 488 149 c 1,24,-1
 618 0 l 1,25,-1
 535 0 l 1,26,-1
 451 96 l 1,27,28
 410 44 410 44 354 16.5 c 128,-1,29
 298 -11 298 -11 231 -11 c 0,30,0
 135 -11 135 -11 78.5 39.5 c 128,-1,1
335.5 72.5 m 128,-1,32
 380 97 380 97 410 143 c 1,33,-1
 234 342 l 1,34,35
 164 312 164 312 126.5 273.5 c 128,-1,36
 89 235 89 235 89 181 c 0,37,38
 89 117 89 117 130.5 82.5 c 128,-1,39
 172 48 172 48 233 48 c 0,40,31
 291 48 291 48 335.5 72.5 c 128,-1,32
342 462.5 m 128,-1,42
 372 495 372 495 372 538 c 256,43,44
 372 581 372 581 345 605 c 128,-1,45
 318 629 318 629 280 629 c 0,46,47
 239 629 239 629 212.5 603.5 c 128,-1,48
 186 578 186 578 186 540 c 0,49,50
 186 509 186 509 203.5 481 c 128,-1,51
 221 453 221 453 261 410 c 1,52,41
 312 430 312 430 342 462.5 c 128,-1,42
EndSplineSet
EndChar
StartChar: parenleft
Encoding: 40 40 268
Width: 632
GlyphClass: 1
Flags: W
LayerCount: 2
Fore
SplineSet
240 42.5 m 128,-1,1
 185 156 185 156 185 273 c 256,2,3
 185 390 185 390 240 503.5 c 128,-1,4
 295 617 295 617 397 708 c 1,5,-1
 485 708 l 1,6,7
 374 612 374 612 314.5 499.5 c 128,-1,8
 255 387 255 387 255 273 c 256,9,10
 255 159 255 159 314.5 46.5 c 128,-1,11
 374 -66 374 -66 485 -162 c 1,12,-1
 397 -162 l 1,13,0
 295 -71 295 -71 240 42.5 c 128,-1,1
EndSplineSet
EndChar
StartChar: comma
Encoding: 44 44 250
Width: 632
GlyphClass: 1
Flags: W
LayerCount: 2
Fore
SplineSet
271.5 8 m 128,-1,1
 256 25 256 25 256 49 c 0,2,3
 256 74 256 74 274 91.5 c 128,-1,4
 292 109 292 109 317 109 c 256,5,6
 342 109 342 109 359.5 91.5 c 128,-1,7
 377 74 377 74 377 49 c 0,8,9
 377 36 377 36 370 18 c 2,10,-1
 309 -141 l 1,11,-1
 259 -141 l 1,12,-1
 310 -11 l 1,13,0
 287 -9 287 -9 271.5 8 c 128,-1,1
EndSplineSet
EndChar
StartChar: period
Encoding: 46 46 249
Width: 632
GlyphClass: 1
Flags: W
LayerCount: 2
Fore
SplineSet
273 6 m 128,-1,1
 255 24 255 24 255 49 c 256,2,3
 255 74 255 74 273 91.5 c 128,-1,4
 291 109 291 109 316 109 c 256,5,6
 341 109 341 109 359 91.5 c 128,-1,7
 377 74 377 74 377 49 c 256,8,9
 377 24 377 24 359.5 6 c 128,-1,10
 342 -12 342 -12 316 -12 c 0,11,0
 291 -12 291 -12 273 6 c 128,-1,1
EndSplineSet
EndChar
StartChar: zero
Encoding: 48 48 229
Width: 632
GlyphClass: 1
Flags: W
LayerCount: 2
Fore
SplineSet
127 77 m 128,-1,1
 59 167 59 167 59 335 c 256,2,3
 59 503 59 503 127 593 c 128,-1,4
 195 683 195 683 316 683 c 256,5,6
 437 683 437 683 505 593 c 128,-1,7
 573 503 573 503 573 335 c 256,8,9
 573 167 573 167 505 77 c 128,-1,10
 437 -13 437 -13 316 -13 c 256,11,0
 195 -13 195 -13 127 77 c 128,-1,1
445 104 m 1,13,-1
 161 519 l 1,14,15
 128 452 128 452 128 335 c 0,16,17
 128 185 128 185 178.5 115 c 128,-1,18
 229 45 229 45 316 45 c 0,19,12
 398 45 398 45 445 104 c 1,13,-1
504 335 m 0,21,22
 504 480 504 480 453.5 552.5 c 128,-1,23
 403 625 403 625 316 625 c 0,24,25
 236 625 236 625 188 567 c 1,26,-1
 472 153 l 1,27,20
 504 220 504 220 504 335 c 0,21,22
EndSplineSet
Substitution2: "'zero' Slashed Zero in Latin lookup 10 subtable" zero.zero
AlternateSubs2: "'aalt' Access All Alternates in Latin lookup 0 subtable" zero.zero
EndChar
StartChar: four
Encoding: 52 52 233
Width: 632
GlyphClass: 5
Flags: W
LayerCount: 2
Fore
SplineSet
392 172 m 1,0,-1
 58 172 l 1,1,-1
 58 242 l 1,2,-1
 384 668 l 1,3,-1
 461 668 l 1,4,-1
 461 235 l 1,5,-1
 575 235 l 1,6,-1
 575 172 l 1,7,-1
 461 172 l 1,8,-1
 461 0 l 1,9,-1
 392 0 l 1,10,-1
 392 172 l 1,0,-1
392 235 m 1,11,-1
 392 578 l 1,12,-1
 388 578 l 1,13,-1
 128 235 l 1,14,-1
 392 235 l 1,11,-1
EndSplineSet
EndChar
StartChar: six
Encoding: 54 54 235
Width: 632
GlyphClass: 1
Flags: W
LayerCount: 2
Fore
SplineSet
155.5 68.5 m 128,-1,1
 95 149 95 149 95 294 c 0,2,3
 95 462 95 462 155 571 c 128,-1,4
 215 680 215 680 347 680 c 0,5,6
 414 680 414 680 460.5 650.5 c 128,-1,7
 507 621 507 621 529 574 c 1,8,-1
 464 549 l 1,9,10
 450 583 450 583 417.5 602.5 c 128,-1,11
 385 622 385 622 342 622 c 0,12,13
 260 622 260 622 212.5 540.5 c 128,-1,14
 165 459 165 459 161 330 c 1,15,16
 182 379 182 379 230 409 c 128,-1,17
 278 439 278 439 344 439 c 0,18,19
 406 439 406 439 454.5 410.5 c 128,-1,20
 503 382 503 382 530 331 c 128,-1,21
 557 280 557 280 557 214 c 0,22,23
 557 154 557 154 529 102 c 128,-1,24
 501 50 501 50 449.5 19 c 128,-1,25
 398 -12 398 -12 330 -12 c 0,26,0
 216 -12 216 -12 155.5 68.5 c 128,-1,1
444 92 m 128,-1,28
 487 138 487 138 487 212 c 0,29,30
 487 288 487 288 444 334.5 c 128,-1,31
 401 381 401 381 331 381 c 0,32,33
 259 381 259 381 216 334 c 128,-1,34
 173 287 173 287 173 212 c 0,35,36
 173 138 173 138 216 92 c 128,-1,37
 259 46 259 46 330 46 c 256,38,27
 401 46 401 46 444 92 c 128,-1,28
EndSplineSet
EndChar
StartChar: eight
Encoding: 56 56 237
Width: 632
GlyphClass: 1
Flags: W
LayerCount: 2
Fore
SplineSet
191.5 15 m 128,-1,1
 137 41 137 41 106.5 86.5 c 128,-1,2
 76 132 76 132 76 188 c 0,3,4
 76 248 76 248 111.5 296 c 128,-1,5
 147 344 147 344 208 367 c 1,6,7
 175 391 175 391 156 427 c 128,-1,8
 137 463 137 463 137 505 c 0,9,10
 137 553 137 553 161 594 c 128,-1,11
 185 635 185 635 226 659 c 128,-1,12
 267 683 267 683 316 683 c 0,13,14
 366 683 366 683 406.5 659 c 128,-1,15
 447 635 447 635 470.5 594 c 128,-1,16
 494 553 494 553 494 505 c 0,17,18
 494 463 494 463 475.5 427 c 128,-1,19
 457 391 457 391 424 367 c 1,20,21
 485 344 485 344 520.5 296 c 128,-1,22
 556 248 556 248 556 188 c 0,23,24
 556 132 556 132 525.5 86.5 c 128,-1,25
 495 41 495 41 440.5 15 c 128,-1,26
 386 -11 386 -11 316 -11 c 256,27,0
 246 -11 246 -11 191.5 15 c 128,-1,1
405 67.5 m 128,-1,29
 444 86 444 86 465 117.5 c 128,-1,30
 486 149 486 149 486 188 c 256,31,32
 486 227 486 227 465 258.5 c 128,-1,33
 444 290 444 290 405 308.5 c 128,-1,34
 366 327 366 327 316 327 c 256,35,36
 266 327 266 327 227 308.5 c 128,-1,37
 188 290 188 290 167 258.5 c 128,-1,38
 146 227 146 227 146 188 c 256,39,40
 146 149 146 149 167 117.5 c 128,-1,41
 188 86 188 86 227 67.5 c 128,-1,42
 266 49 266 49 316 49 c 256,43,28
 366 49 366 49 405 67.5 c 128,-1,29
399 420.5 m 128,-1,45
 433 455 433 455 433 504 c 256,46,47
 433 553 433 553 399 587 c 128,-1,48
 365 621 365 621 316 621 c 256,49,50
 267 621 267 621 233 587 c 128,-1,51
 199 553 199 553 199 504 c 256,52,53
 199 455 199 455 233 420.5 c 128,-1,54
 267 386 267 386 316 386 c 256,55,44
 365 386 365 386 399 420.5 c 128,-1,45
EndSplineSet
EndChar
StartChar: nine
Encoding: 57 57 238
Width: 632
GlyphClass: 1
Flags: W
LayerCount: 2
Fore
SplineSet
308 209 m 0,1,2
 249 209 249 209 194.5 238 c 128,-1,3
 140 267 140 267 106 321 c 128,-1,4
 72 375 72 375 72 445 c 0,5,6
 72 510 72 510 104 564.5 c 128,-1,7
 136 619 136 619 190.5 650.5 c 128,-1,8
 245 682 245 682 310 682 c 256,9,10
 375 682 375 682 429.5 650.5 c 128,-1,11
 484 619 484 619 516 564 c 128,-1,12
 548 509 548 509 548 444 c 0,13,14
 548 398 548 398 534 363 c 128,-1,15
 520 328 520 328 486 272 c 2,16,-1
 322 0 l 1,17,-1
 246 0 l 1,18,-1
 386 224 l 1,19,0
 349 209 349 209 308 209 c 0,1,2
396.5 295 m 128,-1,21
 436 318 436 318 459 357.5 c 128,-1,22
 482 397 482 397 482 444 c 256,23,24
 482 491 482 491 459.5 530.5 c 128,-1,25
 437 570 437 570 397.5 593.5 c 128,-1,26
 358 617 358 617 310 617 c 256,27,28
 262 617 262 617 223 593.5 c 128,-1,29
 184 570 184 570 161 530.5 c 128,-1,30
 138 491 138 491 138 445 c 0,31,32
 138 397 138 397 161.5 357.5 c 128,-1,33
 185 318 185 318 224.5 295 c 128,-1,34
 264 272 264 272 310 272 c 0,35,20
 357 272 357 272 396.5 295 c 128,-1,21
EndSplineSet
EndChar
StartChar: less
Encoding: 60 60 318
Width: 632
GlyphClass: 1
Flags: W
LayerCount: 2
Fore
SplineSet
83 220 m 1,0,-1
 83 276 l 1,1,-1
 549 490 l 1,2,-1
 549 417 l 1,3,-1
 169 247 l 1,4,-1
 549 78 l 1,5,-1
 549 6 l 1,6,-1
 83 220 l 1,0,-1
EndSplineSet
EndChar
StartChar: at
Encoding: 64 64 288
Width: 632
GlyphClass: 1
Flags: W
LayerCount: 2
Fore
SplineSet
171 -53.5 m 128,-1,1
 100 -13 100 -13 57 66 c 128,-1,2
 14 145 14 145 14 256 c 0,3,4
 14 358 14 358 53.5 437 c 128,-1,5
 93 516 93 516 163 559 c 128,-1,6
 233 602 233 602 322 602 c 0,7,8
 395 602 395 602 463 569 c 128,-1,9
 531 536 531 536 574.5 465 c 128,-1,10
 618 394 618 394 618 287 c 0,11,12
 618 216 618 216 599.5 168.5 c 128,-1,13
 581 121 581 121 551 99 c 128,-1,14
 521 77 521 77 486 77 c 0,15,16
 456 77 456 77 432 94 c 128,-1,17
 408 111 408 111 399 137 c 1,18,19
 362 75 362 75 290 75 c 0,20,21
 257 75 257 75 228 94 c 128,-1,22
 199 113 199 113 180.5 149.5 c 128,-1,23
 162 186 162 186 162 237 c 0,24,25
 162 341 162 341 212.5 390.5 c 128,-1,26
 263 440 263 440 336 440 c 0,27,28
 386 440 386 440 443 420 c 1,29,-1
 443 194 l 2,30,31
 443 159 443 159 457.5 143 c 128,-1,32
 472 127 472 127 494 127 c 0,33,34
 530 127 530 127 549 175.5 c 128,-1,35
 568 224 568 224 568 287 c 0,36,37
 568 367 568 367 537.5 427 c 128,-1,38
 507 487 507 487 451 519.5 c 128,-1,39
 395 552 395 552 322 552 c 0,40,41
 247 552 247 552 189 516 c 128,-1,42
 131 480 131 480 99 413 c 128,-1,43
 67 346 67 346 67 256 c 0,44,45
 67 160 67 160 101 92 c 128,-1,46
 135 24 135 24 193 -10 c 128,-1,47
 251 -44 251 -44 322 -44 c 0,48,49
 388 -44 388 -44 443 -9 c 1,50,-1
 443 -66 l 1,51,52
 387 -94 387 -94 325 -94 c 0,53,0
 242 -94 242 -94 171 -53.5 c 128,-1,1
360.5 156 m 128,-1,55
 387 187 387 187 387 233 c 2,56,-1
 387 381 l 1,57,58
 367 388 367 388 336 388 c 0,59,60
 289 388 289 388 254 354 c 128,-1,61
 219 320 219 320 219 238 c 0,62,63
 219 184 219 184 242.5 154.5 c 128,-1,64
 266 125 266 125 298 125 c 0,65,54
 334 125 334 125 360.5 156 c 128,-1,55
EndSplineSet
EndChar
StartChar: B
Encoding: 66 66 13
Width: 632
GlyphClass: 2
Flags: W
AnchorPoint: "Anchor-1" 318 668 basechar 0
AnchorPoint: "Anchor-0" 318 0 basechar 0
LayerCount: 2
Fore
SplineSet
109 668 m 1,0,-1
 342 668 l 2,1,2
 439 668 439 668 488.5 621 c 128,-1,3
 538 574 538 574 538 497 c 0,4,5
 538 449 538 449 515.5 408.5 c 128,-1,6
 493 368 493 368 448 350 c 1,7,8
 506 329 506 329 536 287.5 c 128,-1,9
 566 246 566 246 566 186 c 0,10,11
 566 103 566 103 515 51.5 c 128,-1,12
 464 0 464 0 362 0 c 2,13,-1
 109 0 l 1,14,-1
 109 668 l 1,0,-1
460 96.5 m 128,-1,16
 495 133 495 133 495 190 c 0,17,18
 495 246 495 246 459 281 c 128,-1,19
 423 316 423 316 351 316 c 2,20,-1
 179 316 l 1,21,-1
 179 60 l 1,22,-1
 353 60 l 2,23,15
 425 60 425 60 460 96.5 c 128,-1,16
438.5 406.5 m 128,-1,25
 468 438 468 438 468 489 c 0,26,27
 468 542 468 542 434.5 575 c 128,-1,28
 401 608 401 608 334 608 c 2,29,-1
 179 608 l 1,30,-1
 179 375 l 1,31,-1
 348 375 l 2,32,24
 409 375 409 375 438.5 406.5 c 128,-1,25
EndSplineSet
EndChar
StartChar: C
Encoding: 67 67 14
Width: 632
GlyphClass: 2
Flags: W
AnchorPoint: "Anchor-1" 337 668 basechar 0
AnchorPoint: "Anchor-0" 335 0 basechar 0
LayerCount: 2
Fore
SplineSet
187.5 32.5 m 128,-1,1
 124 77 124 77 89 156.5 c 128,-1,2
 54 236 54 236 54 336 c 0,3,4
 54 435 54 435 90.5 513.5 c 128,-1,5
 127 592 127 592 192 636 c 128,-1,6
 257 680 257 680 340 680 c 0,7,8
 417 680 417 680 480 641 c 128,-1,9
 543 602 543 602 574 530 c 1,10,-1
 514 506 l 1,11,12
 491 557 491 557 446.5 588.5 c 128,-1,13
 402 620 402 620 340 620 c 0,14,15
 282 620 282 620 233 587 c 128,-1,16
 184 554 184 554 154.5 489.5 c 128,-1,17
 125 425 125 425 125 336 c 0,18,19
 125 246 125 246 154.5 180.5 c 128,-1,20
 184 115 184 115 233 81.5 c 128,-1,21
 282 48 282 48 340 48 c 0,22,23
 403 48 403 48 447.5 79 c 128,-1,24
 492 110 492 110 517 161 c 1,25,-1
 577 139 l 1,26,27
 543 64 543 64 480.5 26 c 128,-1,28
 418 -12 418 -12 335 -12 c 0,29,0
 251 -12 251 -12 187.5 32.5 c 128,-1,1
EndSplineSet
EndChar
StartChar: F
Encoding: 70 70 32
Width: 632
GlyphClass: 2
Flags: W
AnchorPoint: "Anchor-1" 309 668 basechar 0
AnchorPoint: "Anchor-0" 309 0 basechar 0
LayerCount: 2
Fore
SplineSet
131 668 m 1,0,-1
 541 668 l 1,1,-1
 541 606 l 1,2,-1
 203 606 l 1,3,-1
 203 370 l 1,4,-1
 537 370 l 1,5,-1
 537 308 l 1,6,-1
 203 308 l 1,7,-1
 203 0 l 1,8,-1
 131 0 l 1,9,-1
 131 668 l 1,0,-1
EndSplineSet
EndChar
StartChar: G
Encoding: 71 71 33
Width: 632
GlyphClass: 2
Flags: W
AnchorPoint: "Anchor-1" 321 668 basechar 0
AnchorPoint: "Anchor-0" 321 0 basechar 0
LayerCount: 2
Fore
SplineSet
171 32.5 m 128,-1,1
 108 77 108 77 74 155.5 c 128,-1,2
 40 234 40 234 40 334 c 0,3,4
 40 437 40 437 75 515.5 c 128,-1,5
 110 594 110 594 174.5 637 c 128,-1,6
 239 680 239 680 325 680 c 0,7,8
 404 680 404 680 466 640 c 128,-1,9
 528 600 528 600 558 526 c 1,10,-1
 497 503 l 1,11,12
 475 558 475 558 430.5 589 c 128,-1,13
 386 620 386 620 324 620 c 0,14,15
 264 620 264 620 215.5 587 c 128,-1,16
 167 554 167 554 139 489.5 c 128,-1,17
 111 425 111 425 111 334 c 0,18,19
 111 247 111 247 138.5 182 c 128,-1,20
 166 117 166 117 214.5 82.5 c 128,-1,21
 263 48 263 48 324 48 c 0,22,23
 366 48 366 48 409.5 66.5 c 128,-1,24
 453 85 453 85 483 130.5 c 128,-1,25
 513 176 513 176 513 251 c 2,26,-1
 513 276 l 1,27,-1
 325 276 l 1,28,-1
 325 335 l 1,29,-1
 578 335 l 1,30,-1
 578 0 l 1,31,-1
 531 0 l 1,32,-1
 517 93 l 1,33,34
 485 41 485 41 430.5 14.5 c 128,-1,35
 376 -12 376 -12 320 -12 c 0,36,0
 234 -12 234 -12 171 32.5 c 128,-1,1
EndSplineSet
EndChar
StartChar: L
Encoding: 76 76 52
Width: 632
GlyphClass: 2
Flags: W
AnchorPoint: "Anchor-3" 285 459 basechar 0
AnchorPoint: "Anchor-1" 322 668 basechar 0
AnchorPoint: "Anchor-0" 339 0 basechar 0
LayerCount: 2
Fore
SplineSet
141 668 m 1,0,-1
 212 668 l 1,1,-1
 212 62 l 1,2,-1
 582 62 l 1,3,-1
 582 0 l 1,4,-1
 141 0 l 1,5,-1
 141 668 l 1,0,-1
EndSplineSet
EndChar
StartChar: M
Encoding: 77 77 56
Width: 632
GlyphClass: 2
Flags: W
AnchorPoint: "Anchor-1" 316 668 basechar 0
AnchorPoint: "Anchor-0" 316 0 basechar 0
LayerCount: 2
Fore
SplineSet
49 668 m 1,0,-1
 160 668 l 1,1,-1
 316 94 l 1,2,-1
 320 94 l 1,3,-1
 473 668 l 1,4,-1
 583 668 l 1,5,-1
 583 0 l 1,6,-1
 518 0 l 1,7,-1
 518 594 l 1,8,-1
 514 594 l 1,9,-1
 352 0 l 1,10,-1
 282 0 l 1,11,-1
 118 594 l 1,12,-1
 114 594 l 1,13,-1
 114 0 l 1,14,-1
 49 0 l 1,15,-1
 49 668 l 1,0,-1
EndSplineSet
EndChar
StartChar: P
Encoding: 80 80 71
Width: 632
GlyphClass: 2
Flags: W
AnchorPoint: "Anchor-1" 319 668 basechar 0
AnchorPoint: "Anchor-0" 319 0 basechar 0
LayerCount: 2
Fore
SplineSet
112 668 m 1,0,-1
 334 668 l 2,1,2
 444 668 444 668 507.5 618.5 c 128,-1,3
 571 569 571 569 571 473 c 0,4,5
 571 376 571 376 507.5 326.5 c 128,-1,6
 444 277 444 277 334 277 c 2,7,-1
 181 277 l 1,8,-1
 181 0 l 1,9,-1
 112 0 l 1,10,-1
 112 668 l 1,0,-1
455.5 368 m 128,-1,12
 500 400 500 400 500 473 c 0,13,14
 500 545 500 545 455.5 576.5 c 128,-1,15
 411 608 411 608 329 608 c 2,16,-1
 181 608 l 1,17,-1
 181 336 l 1,18,-1
 329 336 l 2,19,11
 411 336 411 336 455.5 368 c 128,-1,12
EndSplineSet
EndChar
StartChar: S
Encoding: 83 83 77
Width: 632
GlyphClass: 2
Flags: W
AnchorPoint: "Anchor-1" 316 668 basechar 0
AnchorPoint: "Anchor-0" 316 0 basechar 0
LayerCount: 2
Fore
SplineSet
161.5 27.5 m 128,-1,1
 91 67 91 67 68 143 c 1,2,-1
 136 168 l 1,3,4
 153 109 153 109 203.5 78.5 c 128,-1,5
 254 48 254 48 316 48 c 0,6,7
 393 48 393 48 442.5 84 c 128,-1,8
 492 120 492 120 492 185 c 0,9,10
 492 230 492 230 460 258 c 128,-1,11
 428 286 428 286 346 306 c 2,12,-1
 256 328 l 2,13,14
 177 347 177 347 130.5 386.5 c 128,-1,15
 84 426 84 426 84 499 c 0,16,17
 84 551 84 551 114.5 592 c 128,-1,18
 145 633 145 633 198.5 656.5 c 128,-1,19
 252 680 252 680 317 680 c 0,20,21
 389 680 389 680 449.5 650 c 128,-1,22
 510 620 510 620 539 561 c 1,23,-1
 471 535 l 1,24,25
 450 575 450 575 406 597.5 c 128,-1,26
 362 620 362 620 316 620 c 0,27,28
 247 620 247 620 202 589 c 128,-1,29
 157 558 157 558 157 499 c 0,30,31
 157 423 157 423 272 394 c 2,32,-1
 363 370 l 2,33,34
 463 346 463 346 513.5 305.5 c 128,-1,35
 564 265 564 265 564 186 c 0,36,37
 564 127 564 127 530 82 c 128,-1,38
 496 37 496 37 439 12.5 c 128,-1,39
 382 -12 382 -12 315 -12 c 0,40,0
 232 -12 232 -12 161.5 27.5 c 128,-1,1
EndSplineSet
EndChar
StartChar: T
Encoding: 84 84 83
Width: 632
GlyphClass: 2
Flags: W
AnchorPoint: "Anchor-1" 316 668 basechar 0
AnchorPoint: "Anchor-0" 316 0 basechar 0
LayerCount: 2
Fore
SplineSet
280 606 m 1,0,-1
 61 606 l 1,1,-1
 61 668 l 1,2,-1
 571 668 l 1,3,-1
 571 606 l 1,4,-1
 352 606 l 1,5,-1
 352 0 l 1,6,-1
 280 0 l 1,7,-1
 280 606 l 1,0,-1
EndSplineSet
EndChar
StartChar: U
Encoding: 85 85 87
Width: 632
GlyphClass: 2
Flags: W
AnchorPoint: "Anchor-3" 643 668 basechar 0
AnchorPoint: "Anchor-1" 316 668 basechar 0
LayerCount: 2
Fore
SplineSet
136.5 52 m 128,-1,1
 80 116 80 116 80 247 c 2,2,-1
 80 668 l 1,3,-1
 152 668 l 1,4,-1
 152 240 l 2,5,6
 152 144 152 144 191 96 c 128,-1,7
 230 48 230 48 315 48 c 0,8,9
 401 48 401 48 440.5 96 c 128,-1,10
 480 144 480 144 480 240 c 2,11,-1
 480 668 l 1,12,-1
 552 668 l 1,13,-1
 552 247 l 2,14,15
 552 116 552 116 495 52 c 128,-1,16
 438 -12 438 -12 315 -12 c 0,17,0
 193 -12 193 -12 136.5 52 c 128,-1,1
EndSplineSet
EndChar
StartChar: W
Encoding: 87 87 97
Width: 632
GlyphClass: 2
Flags: W
AnchorPoint: "Anchor-1" 318 668 basechar 0
AnchorPoint: "Anchor-0" 318 0 basechar 0
LayerCount: 2
Fore
SplineSet
12 668 m 1,0,-1
 78 668 l 1,1,-1
 174 93 l 1,2,-1
 178 93 l 1,3,-1
 281 668 l 1,4,-1
 354 668 l 1,5,-1
 456 93 l 1,6,-1
 460 93 l 1,7,-1
 556 668 l 1,8,-1
 621 668 l 1,9,-1
 499 0 l 1,10,-1
 417 0 l 1,11,-1
 319 553 l 1,12,-1
 315 553 l 1,13,-1
 216 0 l 1,14,-1
 134 0 l 1,15,-1
 12 668 l 1,0,-1
EndSplineSet
EndChar
StartChar: Y
Encoding: 89 89 103
Width: 632
GlyphClass: 2
Flags: W
AnchorPoint: "Anchor-1" 317 668 basechar 0
AnchorPoint: "Anchor-0" 317 0 basechar 0
LayerCount: 2
Fore
SplineSet
282 267 m 1,0,-1
 32 668 l 1,1,-1
 114 668 l 1,2,-1
 315 340 l 1,3,-1
 319 340 l 1,4,-1
 519 668 l 1,5,-1
 600 668 l 1,6,-1
 352 267 l 1,7,-1
 352 0 l 1,8,-1
 282 0 l 1,9,-1
 282 267 l 1,0,-1
EndSplineSet
EndChar
StartChar: bracketleft
Encoding: 91 91 272
Width: 632
GlyphClass: 1
Flags: W
LayerCount: 2
Fore
SplineSet
205 708 m 1,0,-1
 472 708 l 1,1,-1
 472 657 l 1,2,-1
 271 657 l 1,3,-1
 271 -111 l 1,4,-1
 472 -111 l 1,5,-1
 472 -162 l 1,6,-1
 205 -162 l 1,7,-1
 205 708 l 1,0,-1
EndSplineSet
EndChar
StartChar: a
Encoding: 97 97 112
Width: 632
GlyphClass: 2
Flags: W
AnchorPoint: "Anchor-2" 522 10 basechar 0
AnchorPoint: "Anchor-1" 311 496 basechar 0
AnchorPoint: "Anchor-0" 311 0 basechar 0
LayerCount: 2
Fore
SplineSet
132.5 23.5 m 128,-1,1
 84 59 84 59 84 124 c 0,2,3
 84 212 84 212 169.5 254.5 c 128,-1,4
 255 297 255 297 437 309 c 1,5,-1
 437 319 l 2,6,7
 437 452 437 452 309 452 c 0,8,9
 257 452 257 452 223.5 429 c 128,-1,10
 190 406 190 406 181 368 c 1,11,-1
 114 386 l 1,12,13
 134 444 134 444 186 475.5 c 128,-1,14
 238 507 238 507 310 507 c 0,15,16
 409 507 409 507 456.5 458.5 c 128,-1,17
 504 410 504 410 504 314 c 2,18,-1
 504 193 l 2,19,20
 504 77 504 77 522 0 c 1,21,-1
 463 0 l 1,22,-1
 444 78 l 1,23,24
 424 39 424 39 378.5 13.5 c 128,-1,25
 333 -12 333 -12 261 -12 c 0,26,0
 181 -12 181 -12 132.5 23.5 c 128,-1,1
392 80 m 128,-1,28
 437 117 437 117 437 196 c 2,29,-1
 437 257 l 1,30,31
 291 247 291 247 222.5 217 c 128,-1,32
 154 187 154 187 154 128 c 0,33,34
 154 89 154 89 185.5 66 c 128,-1,35
 217 43 217 43 272 43 c 0,36,27
 347 43 347 43 392 80 c 128,-1,28
EndSplineSet
Substitution2: "Single Substitution lookup 14 subtable" ordfeminine
AlternateSubs2: "'aalt' Access All Alternates in Latin lookup 0 subtable" ordfeminine
EndChar
StartChar: d
Encoding: 100 100 129
Width: 632
GlyphClass: 2
Flags: W
AnchorPoint: "Anchor-3" 569 498 basechar 0
AnchorPoint: "Anchor-1" 327 796 basechar 0
AnchorPoint: "Anchor-0" 327 0 basechar 0
LayerCount: 2
Fore
SplineSet
166.5 19 m 128,-1,1
 114 50 114 50 85 108.5 c 128,-1,2
 56 167 56 167 56 248 c 256,3,4
 56 329 56 329 85 387 c 128,-1,5
 114 445 114 445 166.5 476 c 128,-1,6
 219 507 219 507 288 507 c 0,7,8
 349 507 349 507 395 480.5 c 128,-1,9
 441 454 441 454 468 409 c 1,10,-1
 468 708 l 1,11,-1
 537 708 l 1,12,-1
 537 185 l 2,13,14
 537 91 537 91 554 0 c 1,15,-1
 490 0 l 1,16,-1
 467 81 l 1,17,18
 439 39 439 39 393.5 13.5 c 128,-1,19
 348 -12 348 -12 288 -12 c 0,20,0
 219 -12 219 -12 166.5 19 c 128,-1,1
423 100.5 m 128,-1,22
 469 154 469 154 469 247 c 256,23,24
 469 340 469 340 422.5 394 c 128,-1,25
 376 448 376 448 300 448 c 0,26,27
 221 448 221 448 174 395.5 c 128,-1,28
 127 343 127 343 127 248 c 256,29,30
 127 153 127 153 174 100 c 128,-1,31
 221 47 221 47 300 47 c 0,32,21
 377 47 377 47 423 100.5 c 128,-1,22
EndSplineSet
EndChar
StartChar: e
Encoding: 101 101 133
Width: 632
GlyphClass: 2
Flags: W
AnchorPoint: "Anchor-2" 479 10 basechar 0
AnchorPoint: "Anchor-1" 327 496 basechar 0
AnchorPoint: "Anchor-0" 314 0 basechar 0
LayerCount: 2
Fore
SplineSet
193 21.5 m 128,-1,1
 138 55 138 55 109 113.5 c 128,-1,2
 80 172 80 172 80 246 c 0,3,4
 80 324 80 324 111 383.5 c 128,-1,5
 142 443 142 443 197 475 c 128,-1,6
 252 507 252 507 322 507 c 0,7,8
 397 507 397 507 451 469 c 128,-1,9
 505 431 505 431 531 369.5 c 128,-1,10
 557 308 557 308 552 239 c 1,11,-1
 150 239 l 1,12,13
 151 138 151 138 204.5 92.5 c 128,-1,14
 258 47 258 47 329 47 c 0,15,16
 416 47 416 47 460 107 c 1,17,-1
 524 84 l 1,18,19
 459 -12 459 -12 324 -12 c 0,20,0
 248 -12 248 -12 193 21.5 c 128,-1,1
463 365.5 m 128,-1,22
 445 402 445 402 409 425.5 c 128,-1,23
 373 449 373 449 322 449 c 0,24,25
 255 449 255 449 208.5 411 c 128,-1,26
 162 373 162 373 151 291 c 1,27,-1
 482 291 l 1,28,21
 481 329 481 329 463 365.5 c 128,-1,22
EndSplineSet
EndChar
StartChar: f
Encoding: 102 102 142
Width: 632
GlyphClass: 2
Flags: W
AnchorPoint: "Anchor-1" 296 796 basechar 0
AnchorPoint: "Anchor-0" 296 0 basechar 0
LayerCount: 2
Fore
SplineSet
261 441 m 1,0,-1
 105 441 l 1,1,-1
 105 496 l 1,2,-1
 261 496 l 1,3,-1
 261 593 l 2,4,5
 261 643 261 643 271.5 669 c 128,-1,6
 282 695 282 695 308 705.5 c 128,-1,7
 334 716 334 716 383 716 c 2,8,-1
 555 716 l 1,9,-1
 555 657 l 1,10,-1
 384 657 l 2,11,12
 361 657 361 657 350.5 652 c 128,-1,13
 340 647 340 647 335.5 633.5 c 128,-1,14
 331 620 331 620 331 591 c 2,15,-1
 331 496 l 1,16,-1
 472 496 l 1,17,-1
 472 441 l 1,18,-1
 331 441 l 1,19,-1
 331 0 l 1,20,-1
 261 0 l 1,21,-1
 261 441 l 1,0,-1
EndSplineSet
EndChar
StartChar: h
Encoding: 104 104 147
Width: 632
GlyphClass: 2
Flags: W
AnchorPoint: "Anchor-1" 311 796 basechar 0
AnchorPoint: "Anchor-0" 311 0 basechar 0
LayerCount: 2
Fore
SplineSet
109 708 m 1,0,-1
 178 708 l 1,1,-1
 178 421 l 1,2,3
 200 455 200 455 243.5 481 c 128,-1,4
 287 507 287 507 347 507 c 0,5,6
 437 507 437 507 481.5 458 c 128,-1,7
 526 409 526 409 526 327 c 2,8,-1
 526 0 l 1,9,-1
 457 0 l 1,10,-1
 457 307 l 2,11,12
 457 373 457 373 427 410.5 c 128,-1,13
 397 448 397 448 332 448 c 0,14,15
 262 448 262 448 220 401 c 128,-1,16
 178 354 178 354 178 270 c 2,17,-1
 178 0 l 1,18,-1
 109 0 l 1,19,-1
 109 708 l 1,0,-1
EndSplineSet
EndChar
StartChar: k
Encoding: 107 107 161
Width: 632
GlyphClass: 2
Flags: W
AnchorPoint: "Anchor-1" 324 796 basechar 0
AnchorPoint: "Anchor-0" 329 0 basechar 0
LayerCount: 2
Fore
SplineSet
141 708 m 1,0,-1
 210 708 l 1,1,-1
 210 253 l 1,2,-1
 460 496 l 1,3,-1
 546 496 l 1,4,-1
 335 293 l 1,5,-1
 575 0 l 1,6,-1
 488 0 l 1,7,-1
 288 247 l 1,8,-1
 210 172 l 1,9,-1
 210 0 l 1,10,-1
 141 0 l 1,11,-1
 141 708 l 1,0,-1
EndSplineSet
EndChar
StartChar: l
Encoding: 108 108 163
Width: 632
GlyphClass: 2
Flags: W
AnchorPoint: "Anchor-3" 367 499 basechar 0
AnchorPoint: "Anchor-1" 270 796 basechar 0
AnchorPoint: "Anchor-0" 373 0 basechar 0
LayerCount: 2
Fore
SplineSet
274 9.5 m 128,-1,1
 251 19 251 19 241 40.5 c 128,-1,2
 231 62 231 62 231 102 c 2,3,-1
 231 653 l 1,4,-1
 116 653 l 1,5,-1
 116 708 l 1,6,-1
 301 708 l 1,7,-1
 301 111 l 2,8,9
 301 80 301 80 310.5 69.5 c 128,-1,10
 320 59 320 59 353 59 c 2,11,-1
 536 59 l 1,12,-1
 536 0 l 1,13,-1
 340 0 l 2,14,0
 297 0 297 0 274 9.5 c 128,-1,1
EndSplineSet
EndChar
StartChar: m
Encoding: 109 109 167
Width: 632
GlyphClass: 2
Flags: W
AnchorPoint: "Anchor-1" 313 496 basechar 0
AnchorPoint: "Anchor-0" 317 0 basechar 0
LayerCount: 2
Fore
SplineSet
67 496 m 1,0,-1
 118 496 l 1,1,-1
 128 442 l 1,2,3
 142 470 142 470 169.5 488.5 c 128,-1,4
 197 507 197 507 235 507 c 0,5,6
 275 507 275 507 302 489.5 c 128,-1,7
 329 472 329 472 340 440 c 1,8,9
 353 468 353 468 382 487.5 c 128,-1,10
 411 507 411 507 452 507 c 0,11,12
 510 507 510 507 538.5 471.5 c 128,-1,13
 567 436 567 436 567 375 c 2,14,-1
 567 0 l 1,15,-1
 502 0 l 1,16,-1
 502 354 l 2,17,18
 502 448 502 448 434 448 c 0,19,20
 396 448 396 448 372.5 418 c 128,-1,21
 349 388 349 388 349 332 c 2,22,-1
 349 0 l 1,23,-1
 285 0 l 1,24,-1
 285 355 l 2,25,26
 285 448 285 448 218 448 c 0,27,28
 180 448 180 448 156 417.5 c 128,-1,29
 132 387 132 387 132 331 c 2,30,-1
 132 0 l 1,31,-1
 67 0 l 1,32,-1
 67 496 l 1,0,-1
EndSplineSet
EndChar
StartChar: n
Encoding: 110 110 168
Width: 632
GlyphClass: 2
Flags: W
AnchorPoint: "Anchor-1" 316 496 basechar 0
AnchorPoint: "Anchor-0" 311 0 basechar 0
LayerCount: 2
Fore
SplineSet
109 496 m 1,0,-1
 163 496 l 1,1,-1
 176 418 l 1,2,3
 197 453 197 453 241 480 c 128,-1,4
 285 507 285 507 346 507 c 0,5,6
 436 507 436 507 481 458 c 128,-1,7
 526 409 526 409 526 327 c 2,8,-1
 526 0 l 1,9,-1
 456 0 l 1,10,-1
 456 307 l 2,11,12
 456 372 456 372 426 410 c 128,-1,13
 396 448 396 448 332 448 c 0,14,15
 262 448 262 448 220 401 c 128,-1,16
 178 354 178 354 178 270 c 2,17,-1
 178 0 l 1,18,-1
 109 0 l 1,19,-1
 109 496 l 1,0,-1
EndSplineSet
EndChar
StartChar: r
Encoding: 114 114 185
Width: 632
GlyphClass: 2
Flags: W
AnchorPoint: "Anchor-1" 317 496 basechar 0
AnchorPoint: "Anchor-0" 190 0 basechar 0
LayerCount: 2
Fore
SplineSet
155 496 m 1,0,-1
 207 496 l 1,1,-1
 225 376 l 1,2,3
 257 439 257 439 317 471 c 128,-1,4
 377 503 377 503 452 503 c 0,5,6
 490 503 490 503 528 495 c 1,7,-1
 528 421 l 1,8,9
 483 435 483 435 436 435 c 0,10,11
 342 435 342 435 283 378 c 128,-1,12
 224 321 224 321 224 213 c 2,13,-1
 224 0 l 1,14,-1
 155 0 l 1,15,-1
 155 496 l 1,0,-1
EndSplineSet
EndChar
StartChar: t
Encoding: 116 116 194
Width: 632
GlyphClass: 2
Flags: W
AnchorPoint: "Anchor-3" 332 544 basechar 0
AnchorPoint: "Anchor-1" 285 496 basechar 0
AnchorPoint: "Anchor-0" 333 0 basechar 0
LayerCount: 2
Fore
SplineSet
277.5 9.5 m 128,-1,1
 254 19 254 19 243.5 44.5 c 128,-1,2
 233 70 233 70 233 120 c 2,3,-1
 233 441 l 1,4,-1
 124 441 l 1,5,-1
 124 496 l 1,6,-1
 233 496 l 1,7,-1
 233 620 l 1,8,-1
 302 620 l 1,9,-1
 302 496 l 1,10,-1
 515 496 l 1,11,-1
 515 441 l 1,12,-1
 302 441 l 1,13,-1
 302 126 l 2,14,15
 302 97 302 97 306.5 83 c 128,-1,16
 311 69 311 69 322.5 64 c 128,-1,17
 334 59 334 59 358 59 c 2,18,-1
 465 59 l 1,19,-1
 465 0 l 1,20,-1
 347 0 l 2,21,0
 301 0 301 0 277.5 9.5 c 128,-1,1
EndSplineSet
EndChar
StartChar: u
Encoding: 117 117 198
Width: 632
GlyphClass: 2
Flags: W
AnchorPoint: "Anchor-3" 557 496 basechar 0
AnchorPoint: "Anchor-2" 517 10 basechar 0
AnchorPoint: "Anchor-1" 314 496 basechar 0
AnchorPoint: "Anchor-0" 305 0 basechar 0
LayerCount: 2
Fore
SplineSet
154.5 37.5 m 128,-1,1
 112 87 112 87 112 173 c 2,2,-1
 112 496 l 1,3,-1
 181 496 l 1,4,-1
 181 194 l 2,5,6
 181 123 181 123 208 85 c 128,-1,7
 235 47 235 47 300 47 c 0,8,9
 368 47 368 47 408 92.5 c 128,-1,10
 448 138 448 138 448 222 c 2,11,-1
 448 496 l 1,12,-1
 517 496 l 1,13,-1
 517 0 l 1,14,-1
 463 0 l 1,15,-1
 450 79 l 1,16,17
 429 40 429 40 388.5 14 c 128,-1,18
 348 -12 348 -12 287 -12 c 0,19,0
 197 -12 197 -12 154.5 37.5 c 128,-1,1
EndSplineSet
EndChar
StartChar: w
Encoding: 119 119 208
Width: 632
GlyphClass: 2
Flags: W
AnchorPoint: "Anchor-1" 316 496 basechar 0
AnchorPoint: "Anchor-0" 315 0 basechar 0
LayerCount: 2
Fore
SplineSet
32 496 m 1,0,-1
 97 496 l 1,1,-1
 188 103 l 1,2,-1
 192 103 l 1,3,-1
 286 496 l 1,4,-1
 347 496 l 1,5,-1
 444 105 l 1,6,-1
 448 105 l 1,7,-1
 537 496 l 1,8,-1
 600 496 l 1,9,-1
 476 0 l 1,10,-1
 417 0 l 1,11,-1
 318 405 l 1,12,-1
 314 405 l 1,13,-1
 216 0 l 1,14,-1
 157 0 l 1,15,-1
 32 496 l 1,0,-1
EndSplineSet
EndChar
StartChar: x
Encoding: 120 120 213
Width: 632
GlyphClass: 2
Flags: W
AnchorPoint: "Anchor-1" 317 496 basechar 0
AnchorPoint: "Anchor-0" 317 0 basechar 0
LayerCount: 2
Fore
SplineSet
272 254 m 1,0,-1
 81 496 l 1,1,-1
 161 496 l 1,2,-1
 313 300 l 1,3,-1
 317 300 l 1,4,-1
 473 496 l 1,5,-1
 552 496 l 1,6,-1
 361 253 l 1,7,-1
 560 0 l 1,8,-1
 480 0 l 1,9,-1
 317 206 l 1,10,-1
 313 206 l 1,11,-1
 152 0 l 1,12,-1
 73 0 l 1,13,-1
 272 254 l 1,0,-1
EndSplineSet
EndChar
StartChar: y
Encoding: 121 121 214
Width: 632
GlyphClass: 2
Flags: W
AnchorPoint: "Anchor-1" 316 496 basechar 0
AnchorPoint: "Anchor-0" 313 0 basechar 0
LayerCount: 2
Fore
SplineSet
95 -104 m 1,0,-1
 171 -104 l 2,1,2
 206 -104 206 -104 222 -94 c 128,-1,3
 238 -84 238 -84 253 -52 c 2,4,-1
 282 10 l 1,5,-1
 63 496 l 1,6,-1
 138 496 l 1,7,-1
 316 90 l 1,8,-1
 320 90 l 1,9,-1
 495 496 l 1,10,-1
 569 496 l 1,11,-1
 314 -64 l 2,12,13
 296 -104 296 -104 281.5 -123.5 c 128,-1,14
 267 -143 267 -143 242.5 -152.5 c 128,-1,15
 218 -162 218 -162 174 -162 c 2,16,-1
 95 -162 l 1,17,-1
 95 -104 l 1,0,-1
EndSplineSet
EndChar
StartChar: z
Encoding: 122 122 219
Width: 632
GlyphClass: 2
Flags: W
AnchorPoint: "Anchor-1" 327 496 basechar 0
AnchorPoint: "Anchor-0" 312 0 basechar 0
LayerCount: 2
Fore
SplineSet
100 59 m 1,0,-1
 443 437 l 1,1,-1
 109 437 l 1,2,-1
 109 496 l 1,3,-1
 531 496 l 1,4,-1
 531 437 l 1,5,-1
 188 59 l 1,6,-1
 541 59 l 1,7,-1
 541 0 l 1,8,-1
 100 0 l 1,9,-1
 100 59 l 1,0,-1
EndSplineSet
EndChar
StartChar: braceright
Encoding: 125 125 271
Width: 632
GlyphClass: 1
Flags: W
LayerCount: 2
Fore
SplineSet
159 -108 m 1,0,-1
 283 -108 l 2,1,2
 308 -108 308 -108 317.5 -99 c 128,-1,3
 327 -90 327 -90 327 -68 c 2,4,-1
 327 143 l 2,5,6
 327 202 327 202 344 230.5 c 128,-1,7
 361 259 361 259 398 270 c 1,8,-1
 398 276 l 1,9,10
 361 288 361 288 344 316 c 128,-1,11
 327 344 327 344 327 403 c 2,12,-1
 327 614 l 2,13,14
 327 636 327 636 317.5 645 c 128,-1,15
 308 654 308 654 283 654 c 2,16,-1
 159 654 l 1,17,-1
 159 708 l 1,18,-1
 283 708 l 2,19,20
 329 708 329 708 353 697.5 c 128,-1,21
 377 687 377 687 385.5 665.5 c 128,-1,22
 394 644 394 644 394 605 c 2,23,-1
 394 394 l 2,24,25
 394 358 394 358 402 338.5 c 128,-1,26
 410 319 410 319 430 310.5 c 128,-1,27
 450 302 450 302 488 300 c 1,28,-1
 488 246 l 1,29,30
 450 244 450 244 430 235.5 c 128,-1,31
 410 227 410 227 402 207.5 c 128,-1,32
 394 188 394 188 394 152 c 2,33,-1
 394 -59 l 2,34,35
 394 -98 394 -98 385.5 -119.5 c 128,-1,36
 377 -141 377 -141 353 -151.5 c 128,-1,37
 329 -162 329 -162 283 -162 c 2,38,-1
 159 -162 l 1,39,-1
 159 -108 l 1,0,-1
EndSplineSet
EndChar
StartChar: asciitilde
Encoding: 126 126 324
Width: 632
GlyphClass: 1
Flags: W
LayerCount: 2
Fore
SplineSet
200 322 m 0,1,2
 227 322 227 322 254.5 313.5 c 128,-1,3
 282 305 282 305 326 288 c 0,4,5
 359 274 359 274 384 266 c 128,-1,6
 409 258 409 258 430 258 c 0,7,8
 491 258 491 258 497 331 c 1,9,-1
 554 317 l 1,10,11
 541 197 541 197 430 197 c 0,12,13
 403 197 403 197 374.5 205.5 c 128,-1,14
 346 214 346 214 306 231 c 0,15,16
 266 247 266 247 243.5 254 c 128,-1,17
 221 261 221 261 200 261 c 0,18,19
 139 261 139 261 134 188 c 1,20,-1
 76 202 l 1,21,0
 91 322 91 322 200 322 c 0,1,2
EndSplineSet
EndChar
StartChar: cent
Encoding: 162 162 302
Width: 632
GlyphClass: 1
Flags: W
LayerCount: 2
Fore
SplineSet
205.5 33 m 128,-1,1
 162 69 162 69 139.5 125 c 128,-1,2
 117 181 117 181 117 246 c 256,3,4
 117 311 117 311 141 366 c 128,-1,5
 165 421 165 421 208.5 457 c 128,-1,6
 252 493 252 493 309 501 c 1,7,-1
 309 586 l 1,8,-1
 351 586 l 1,9,-1
 351 503 l 1,10,11
 417 500 417 500 460.5 470 c 128,-1,12
 504 440 504 440 528 397 c 1,13,-1
 467 374 l 1,14,15
 428 437 428 437 351 442 c 1,16,-1
 351 49 l 1,17,18
 392 52 392 52 422 71.5 c 128,-1,19
 452 91 452 91 469 120 c 1,20,-1
 531 97 l 1,21,22
 507 54 507 54 460.5 23 c 128,-1,23
 414 -8 414 -8 351 -12 c 1,24,-1
 351 -90 l 1,25,-1
 309 -90 l 1,26,-1
 309 -10 l 1,27,0
 249 -3 249 -3 205.5 33 c 128,-1,1
223 375.5 m 128,-1,29
 189 325 189 325 189 247 c 0,30,31
 189 171 189 171 221.5 117.5 c 128,-1,32
 254 64 254 64 309 52 c 1,33,-1
 309 439 l 1,34,28
 257 426 257 426 223 375.5 c 128,-1,29
EndSplineSet
EndChar
StartChar: currency
Encoding: 164 164 303
Width: 632
GlyphClass: 1
Flags: W
LayerCount: 2
Fore
SplineSet
81 117 m 1,0,-1
 147 182 l 1,1,2
 98 242 98 242 98 321 c 256,3,4
 98 400 98 400 147 460 c 1,5,-1
 81 525 l 1,6,-1
 113 555 l 1,7,-1
 178 490 l 1,8,9
 237 538 237 538 316 538 c 256,10,11
 395 538 395 538 454 490 c 1,12,-1
 519 555 l 1,13,-1
 551 525 l 1,14,-1
 486 460 l 1,15,16
 534 399 534 399 534 321 c 256,17,18
 534 243 534 243 486 182 c 1,19,-1
 551 117 l 1,20,-1
 519 87 l 1,21,-1
 454 151 l 1,22,23
 394 104 394 104 316 104 c 256,24,25
 238 104 238 104 178 151 c 1,26,-1
 113 87 l 1,27,-1
 81 117 l 1,0,-1
393.5 186 m 128,-1,29
 429 207 429 207 450 243 c 128,-1,30
 471 279 471 279 471 321 c 256,31,32
 471 363 471 363 450 399 c 128,-1,33
 429 435 429 435 393.5 456 c 128,-1,34
 358 477 358 477 316 477 c 256,35,36
 274 477 274 477 238.5 456 c 128,-1,37
 203 435 203 435 182 399 c 128,-1,38
 161 363 161 363 161 321 c 256,39,40
 161 279 161 279 182 243 c 128,-1,41
 203 207 203 207 238.5 186 c 128,-1,42
 274 165 274 165 316 165 c 256,43,28
 358 165 358 165 393.5 186 c 128,-1,29
EndSplineSet
EndChar
StartChar: yen
Encoding: 165 165 308
Width: 632
GlyphClass: 1
Flags: W
LayerCount: 2
Fore
SplineSet
280 89 m 1,0,-1
 123 89 l 1,1,-1
 123 134 l 1,2,-1
 280 134 l 1,3,-1
 280 226 l 1,4,-1
 123 226 l 1,5,-1
 123 271 l 1,6,-1
 271 271 l 1,7,-1
 46 668 l 1,8,-1
 126 668 l 1,9,-1
 315 326 l 1,10,-1
 319 326 l 1,11,-1
 508 668 l 1,12,-1
 586 668 l 1,13,-1
 362 271 l 1,14,-1
 509 271 l 1,15,-1
 509 226 l 1,16,-1
 354 226 l 1,17,-1
 354 134 l 1,18,-1
 509 134 l 1,19,-1
 509 89 l 1,20,-1
 354 89 l 1,21,-1
 354 0 l 1,22,-1
 280 0 l 1,23,-1
 280 89 l 1,0,-1
EndSplineSet
EndChar
StartChar: section
Encoding: 167 167 291
Width: 632
GlyphClass: 1
Flags: W
LayerCount: 2
Fore
SplineSet
190 -140 m 128,-1,1
 140 -107 140 -107 124 -47 c 1,2,-1
 193 -29 l 1,3,4
 214 -117 214 -117 313 -117 c 0,5,6
 362 -117 362 -117 394 -93.5 c 128,-1,7
 426 -70 426 -70 426 -36 c 0,8,9
 426 -9 426 -9 404.5 12 c 128,-1,10
 383 33 383 33 319 68 c 2,11,-1
 222 120 l 2,12,13
 150 158 150 158 120 193.5 c 128,-1,14
 90 229 90 229 90 280 c 0,15,16
 90 370 90 370 217 424 c 1,17,18
 175 453 175 453 158.5 479.5 c 128,-1,19
 142 506 142 506 142 540 c 0,20,21
 142 581 142 581 166.5 613 c 128,-1,22
 191 645 191 645 232 662.5 c 128,-1,23
 273 680 273 680 320 680 c 0,24,25
 392 680 392 680 442 647 c 128,-1,26
 492 614 492 614 508 554 c 1,27,-1
 439 537 l 1,28,29
 418 624 418 624 319 624 c 0,30,31
 270 624 270 624 238.5 600.5 c 128,-1,32
 207 577 207 577 207 543 c 0,33,34
 207 516 207 516 228 494.5 c 128,-1,35
 249 473 249 473 313 439 c 2,36,-1
 410 387 l 2,37,38
 483 349 483 349 512.5 314 c 128,-1,39
 542 279 542 279 542 227 c 0,40,41
 542 137 542 137 415 83 c 1,42,43
 457 54 457 54 473.5 27.5 c 128,-1,44
 490 1 490 1 490 -33 c 0,45,46
 490 -74 490 -74 465.5 -106 c 128,-1,47
 441 -138 441 -138 400 -155.5 c 128,-1,48
 359 -173 359 -173 312 -173 c 0,49,0
 240 -173 240 -173 190 -140 c 128,-1,1
447.5 162 m 128,-1,51
 478 189 478 189 478 222 c 256,52,53
 478 255 478 255 454 279 c 128,-1,54
 430 303 430 303 374 334 c 2,55,-1
 265 392 l 1,56,57
 215 372 215 372 184.5 345 c 128,-1,58
 154 318 154 318 154 285 c 256,59,60
 154 252 154 252 178 228 c 128,-1,61
 202 204 202 204 258 173 c 2,62,-1
 367 115 l 1,63,50
 417 135 417 135 447.5 162 c 128,-1,51
EndSplineSet
EndChar
StartChar: copyright
Encoding: 169 169 292
Width: 632
GlyphClass: 1
Flags: W
LayerCount: 2
Fore
SplineSet
162.5 33.5 m 128,-1,1
 95 80 95 80 57.5 159 c 128,-1,2
 20 238 20 238 20 334 c 256,3,4
 20 430 20 430 57.5 509 c 128,-1,5
 95 588 95 588 162.5 634.5 c 128,-1,6
 230 681 230 681 316 681 c 256,7,8
 402 681 402 681 469.5 634.5 c 128,-1,9
 537 588 537 588 574.5 509 c 128,-1,10
 612 430 612 430 612 334 c 256,11,12
 612 238 612 238 574.5 159 c 128,-1,13
 537 80 537 80 469.5 33.5 c 128,-1,14
 402 -13 402 -13 316 -13 c 256,15,0
 230 -13 230 -13 162.5 33.5 c 128,-1,1
208.5 194.5 m 128,-1,17
 167 246 167 246 167 335 c 256,18,19
 167 424 167 424 209.5 475 c 128,-1,20
 252 526 252 526 321 526 c 0,21,22
 366 526 366 526 396.5 503 c 128,-1,23
 427 480 427 480 443 444 c 1,24,-1
 389 422 l 1,25,26
 367 475 367 475 319 475 c 0,27,28
 281 475 281 475 255.5 439 c 128,-1,29
 230 403 230 403 230 335 c 0,30,31
 230 268 230 268 255.5 231 c 128,-1,32
 281 194 281 194 319 194 c 0,33,34
 346 194 346 194 363 206 c 128,-1,35
 380 218 380 218 391 246 c 1,36,-1
 446 224 l 1,37,38
 427 188 427 188 397.5 165.5 c 128,-1,39
 368 143 368 143 320 143 c 0,40,16
 250 143 250 143 208.5 194.5 c 128,-1,17
443.5 76.5 m 128,-1,42
 499 116 499 116 530 184 c 128,-1,43
 561 252 561 252 561 334 c 256,44,45
 561 416 561 416 530 484 c 128,-1,46
 499 552 499 552 443.5 591.5 c 128,-1,47
 388 631 388 631 316 631 c 256,48,49
 244 631 244 631 188.5 591.5 c 128,-1,50
 133 552 133 552 102 484 c 128,-1,51
 71 416 71 416 71 334 c 256,52,53
 71 252 71 252 102 184 c 128,-1,54
 133 116 133 116 188.5 76.5 c 128,-1,55
 244 37 244 37 316 37 c 256,56,41
 388 37 388 37 443.5 76.5 c 128,-1,42
EndSplineSet
EndChar
StartChar: guillemotleft
Encoding: 171 171 280
Width: 632
GlyphClass: 1
Flags: W
LayerCount: 2
Fore
SplineSet
303 250 m 1,0,-1
 451 460 l 1,1,-1
 529 460 l 1,2,-1
 380 250 l 1,3,-1
 529 40 l 1,4,-1
 451 40 l 1,5,-1
 303 250 l 1,0,-1
104 250 m 1,6,-1
 252 460 l 1,7,-1
 329 460 l 1,8,-1
 181 250 l 1,9,-1
 329 40 l 1,10,-1
 252 40 l 1,11,-1
 104 250 l 1,6,-1
EndSplineSet
EndChar
StartChar: registered
Encoding: 174 174 293
Width: 632
GlyphClass: 1
Flags: W
LayerCount: 2
Fore
SplineSet
162.5 33.5 m 128,-1,1
 95 80 95 80 57.5 159 c 128,-1,2
 20 238 20 238 20 334 c 256,3,4
 20 430 20 430 57.5 509 c 128,-1,5
 95 588 95 588 162.5 634.5 c 128,-1,6
 230 681 230 681 316 681 c 256,7,8
 402 681 402 681 469.5 634.5 c 128,-1,9
 537 588 537 588 574.5 509 c 128,-1,10
 612 430 612 430 612 334 c 256,11,12
 612 238 612 238 574.5 159 c 128,-1,13
 537 80 537 80 469.5 33.5 c 128,-1,14
 402 -13 402 -13 316 -13 c 256,15,0
 230 -13 230 -13 162.5 33.5 c 128,-1,1
443.5 76.5 m 128,-1,17
 499 116 499 116 530 184 c 128,-1,18
 561 252 561 252 561 334 c 256,19,20
 561 416 561 416 530 484 c 128,-1,21
 499 552 499 552 443.5 591.5 c 128,-1,22
 388 631 388 631 316 631 c 256,23,24
 244 631 244 631 188.5 591.5 c 128,-1,25
 133 552 133 552 102 484 c 128,-1,26
 71 416 71 416 71 334 c 256,27,28
 71 252 71 252 102 184 c 128,-1,29
 133 116 133 116 188.5 76.5 c 128,-1,30
 244 37 244 37 316 37 c 256,31,16
 388 37 388 37 443.5 76.5 c 128,-1,17
204 529 m 1,32,-1
 317 529 l 2,33,34
 377 529 377 529 410.5 499.5 c 128,-1,35
 444 470 444 470 444 417 c 0,36,37
 444 337 444 337 369 311 c 1,38,-1
 461 162 l 1,39,-1
 394 162 l 1,40,-1
 309 302 l 1,41,-1
 262 302 l 1,42,-1
 262 162 l 1,43,-1
 204 162 l 1,44,-1
 204 529 l 1,32,-1
365.5 368 m 128,-1,46
 383 385 383 385 383 417 c 0,47,48
 383 451 383 451 364.5 465.5 c 128,-1,49
 346 480 346 480 310 480 c 2,50,-1
 262 480 l 1,51,-1
 262 351 l 1,52,-1
 314 351 l 2,53,45
 348 351 348 351 365.5 368 c 128,-1,46
EndSplineSet
EndChar
StartChar: uni00B3
Encoding: 179 179 246
Width: 632
GlyphClass: 1
Flags: W
LayerCount: 2
Fore
SplineSet
219.5 385.5 m 128,-1,1
 183 414 183 414 171 459 c 1,2,-1
 225 471 l 1,3,4
 245 403 245 403 313 403 c 0,5,6
 350 403 350 403 376.5 423 c 128,-1,7
 403 443 403 443 403 477 c 0,8,9
 403 521 403 521 374.5 541 c 128,-1,10
 346 561 346 561 300 561 c 0,11,12
 290 561 290 561 272 559 c 1,13,-1
 272 605 l 1,14,15
 281 604 281 604 298 604 c 0,16,17
 393 604 393 604 393 676 c 0,18,19
 393 708 393 708 371 724 c 128,-1,20
 349 740 349 740 317 740 c 0,21,22
 281 740 281 740 260 724.5 c 128,-1,23
 239 709 239 709 230 676 c 1,24,-1
 176 688 l 1,25,26
 189 733 189 733 227 759.5 c 128,-1,27
 265 786 265 786 321 786 c 0,28,29
 371 786 371 786 412 758 c 128,-1,30
 453 730 453 730 453 675 c 0,31,32
 453 647 453 647 436 623 c 128,-1,33
 419 599 419 599 391 583 c 1,34,35
 425 569 425 569 443.5 541.5 c 128,-1,36
 462 514 462 514 462 483 c 0,37,38
 462 422 462 422 419.5 389.5 c 128,-1,39
 377 357 377 357 314 357 c 0,40,0
 256 357 256 357 219.5 385.5 c 128,-1,1
EndSplineSet
EndChar
StartChar: onehalf
Encoding: 189 189 241
Width: 632
GlyphClass: 3
Flags: W
LayerCount: 2
Fore
SplineSet
125 587 m 1,0,-1
 57 587 l 1,1,-1
 57 627 l 1,2,3
 120 627 120 627 134 668 c 1,4,-1
 182 668 l 1,5,-1
 182 364 l 1,6,-1
 125 364 l 1,7,-1
 125 587 l 1,0,-1
441 668 m 1,8,-1
 503 668 l 1,9,-1
 137 0 l 1,10,-1
 75 0 l 1,11,-1
 441 668 l 1,8,-1
448 123.5 m 128,-1,13
 480 151 480 151 496 173.5 c 128,-1,14
 512 196 512 196 512 219 c 0,15,16
 512 241 512 241 499.5 252.5 c 128,-1,17
 487 264 487 264 465 264 c 0,18,19
 445 264 445 264 430.5 252.5 c 128,-1,20
 416 241 416 241 412 218 c 1,21,-1
 359 234 l 1,22,23
 370 270 370 270 398.5 289.5 c 128,-1,24
 427 309 427 309 469 309 c 0,25,26
 514 309 514 309 542 285.5 c 128,-1,27
 570 262 570 262 570 224 c 0,28,29
 570 181 570 181 537 143 c 128,-1,30
 504 105 504 105 433 51 c 1,31,-1
 577 51 l 1,32,-1
 577 0 l 1,33,-1
 350 0 l 1,34,-1
 350 45 l 1,35,12
 416 96 416 96 448 123.5 c 128,-1,13
EndSplineSet
Ligature2: "'frac' Diagonal Fractions in Latin lookup 7 subtable" one slash two
EndChar
StartChar: threequarters
Encoding: 190 190 243
Width: 632
GlyphClass: 3
Flags: W
LayerCount: 2
Fore
SplineSet
483 668 m 1,0,-1
 545 668 l 1,1,-1
 179 0 l 1,2,-1
 117 0 l 1,3,-1
 483 668 l 1,0,-1
497 64 m 1,4,-1
 341 64 l 1,5,-1
 341 112 l 1,6,-1
 496 305 l 1,7,-1
 552 305 l 1,8,-1
 552 114 l 1,9,-1
 601 114 l 1,10,-1
 601 64 l 1,11,-1
 552 64 l 1,12,-1
 552 0 l 1,13,-1
 497 0 l 1,14,-1
 497 64 l 1,4,-1
497 114 m 1,15,-1
 497 231 l 1,16,-1
 495 231 l 1,17,-1
 402 114 l 1,18,-1
 497 114 l 1,15,-1
72 385.5 m 128,-1,20
 43 404 43 404 32 437 c 1,21,-1
 86 453 l 1,22,23
 91 434 91 434 106.5 422.5 c 128,-1,24
 122 411 122 411 146 411 c 256,25,26
 170 411 170 411 185.5 423.5 c 128,-1,27
 201 436 201 436 201 457 c 0,28,29
 201 484 201 484 181 495 c 128,-1,30
 161 506 161 506 115 504 c 1,31,-1
 115 552 l 1,32,33
 194 548 194 548 194 596 c 0,34,35
 194 615 194 615 180 625 c 128,-1,36
 166 635 166 635 146 635 c 0,37,38
 103 635 103 635 88 596 c 1,39,-1
 36 612 l 1,40,41
 47 644 47 644 76.5 662 c 128,-1,42
 106 680 106 680 149 680 c 256,43,44
 192 680 192 680 222 659 c 128,-1,45
 252 638 252 638 252 599 c 0,46,47
 252 577 252 577 240 559 c 128,-1,48
 228 541 228 541 209 531 c 1,49,50
 233 522 233 522 246 502.5 c 128,-1,51
 259 483 259 483 259 460 c 0,52,53
 259 414 259 414 226.5 390.5 c 128,-1,54
 194 367 194 367 145 367 c 0,55,19
 101 367 101 367 72 385.5 c 128,-1,20
EndSplineSet
Ligature2: "'frac' Diagonal Fractions in Latin lookup 7 subtable" three slash four
EndChar
StartChar: questiondown
Encoding: 191 191 257
Width: 632
GlyphClass: 1
Flags: W
LayerCount: 2
Fore
SplineSet
207.5 -163 m 128,-1,1
 162 -144 162 -144 134 -106.5 c 128,-1,2
 106 -69 106 -69 106 -17 c 0,3,4
 106 40 106 40 135.5 80.5 c 128,-1,5
 165 121 165 121 234 175 c 0,6,7
 266 199 266 199 279.5 214 c 128,-1,8
 293 229 293 229 297.5 244 c 128,-1,9
 302 259 302 259 302 285 c 2,10,-1
 302 325 l 1,11,-1
 371 325 l 1,12,-1
 371 289 l 2,13,14
 371 231 371 231 350.5 197 c 128,-1,15
 330 163 330 163 271 122 c 0,16,17
 224 90 224 90 200 56.5 c 128,-1,18
 176 23 176 23 176 -17 c 0,19,20
 176 -66 176 -66 212 -94.5 c 128,-1,21
 248 -123 248 -123 305 -123 c 0,22,23
 368 -123 368 -123 403 -88 c 128,-1,24
 438 -53 438 -53 445 -7 c 1,25,-1
 511 -22 l 1,26,27
 500 -94 500 -94 442.5 -138 c 128,-1,28
 385 -182 385 -182 303 -182 c 0,29,0
 253 -182 253 -182 207.5 -163 c 128,-1,1
298 417 m 128,-1,31
 282 433 282 433 282 455 c 0,32,33
 282 478 282 478 298 494 c 128,-1,34
 314 510 314 510 336 510 c 0,35,36
 359 510 359 510 375 494 c 128,-1,37
 391 478 391 478 391 455 c 256,38,39
 391 432 391 432 375 416.5 c 128,-1,40
 359 401 359 401 336 401 c 0,41,30
 314 401 314 401 298 417 c 128,-1,31
EndSplineSet
EndChar
StartChar: AE
Encoding: 198 198 12
Width: 632
GlyphClass: 2
Flags: W
AnchorPoint: "Anchor-1" 319 668 basechar 0
AnchorPoint: "Anchor-0" 319 0 basechar 0
LayerCount: 2
Fore
SplineSet
267 668 m 1,0,-1
 619 668 l 1,1,-1
 619 609 l 1,2,-1
 373 609 l 1,3,-1
 373 373 l 1,4,-1
 563 373 l 1,5,-1
 563 314 l 1,6,-1
 373 314 l 1,7,-1
 373 59 l 1,8,-1
 621 59 l 1,9,-1
 621 0 l 1,10,-1
 307 0 l 1,11,-1
 307 162 l 1,12,-1
 133 162 l 1,13,-1
 70 0 l 1,14,-1
 5 0 l 1,15,-1
 267 668 l 1,0,-1
307 219 m 1,16,-1
 307 610 l 1,17,-1
 303 610 l 1,18,-1
 154 219 l 1,19,-1
 307 219 l 1,16,-1
EndSplineSet
EndChar
StartChar: multiply
Encoding: 215 215 313
Width: 632
GlyphClass: 1
Flags: W
LayerCount: 2
Fore
SplineSet
110 85 m 1,0,-1
 273 248 l 1,1,-1
 109 411 l 1,2,-1
 153 455 l 1,3,-1
 316 291 l 1,4,-1
 480 455 l 1,5,-1
 523 411 l 1,6,-1
 359 248 l 1,7,-1
 523 85 l 1,8,-1
 479 41 l 1,9,-1
 316 205 l 1,10,-1
 153 41 l 1,11,-1
 110 85 l 1,0,-1
EndSplineSet
EndChar
StartChar: Oslash
Encoding: 216 216 68
Width: 632
GlyphClass: 2
Flags: W
AnchorPoint: "Anchor-3" 631 668 basechar 0
AnchorPoint: "Anchor-2" 582 10 basechar 0
AnchorPoint: "Anchor-1" 317 668 basechar 0
AnchorPoint: "Anchor-0" 317 0 basechar 0
LayerCount: 2
Fore
SplineSet
135 61 m 1,1,-1
 84 -4 l 1,2,-1
 49 23 l 1,3,-1
 106 96 l 1,4,5
 74 141 74 141 57 202 c 128,-1,6
 40 263 40 263 40 334 c 0,7,8
 40 435 40 435 73 513.5 c 128,-1,9
 106 592 106 592 168.5 636 c 128,-1,10
 231 680 231 680 316 680 c 0,11,12
 426 680 426 680 498 606 c 1,13,-1
 549 671 l 1,14,-1
 585 645 l 1,15,-1
 527 571 l 1,16,17
 559 526 559 526 575.5 465.5 c 128,-1,18
 592 405 592 405 592 334 c 0,19,20
 592 233 592 233 559 154.5 c 128,-1,21
 526 76 526 76 463.5 32 c 128,-1,22
 401 -12 401 -12 316 -12 c 0,23,0
 205 -12 205 -12 135 61 c 1,1,-1
421.5 81 m 128,-1,25
 468 114 468 114 494 178.5 c 128,-1,26
 520 243 520 243 520 334 c 0,27,28
 520 437 520 437 483 511 c 1,29,-1
 175 115 l 1,30,31
 202 82 202 82 238 65 c 128,-1,32
 274 48 274 48 316 48 c 0,33,24
 375 48 375 48 421.5 81 c 128,-1,25
316 620 m 0,35,36
 257 620 257 620 210.5 587 c 128,-1,37
 164 554 164 554 138 489.5 c 128,-1,38
 112 425 112 425 112 334 c 0,39,40
 112 227 112 227 150 156 c 1,41,-1
 458 552 l 1,42,34
 404 620 404 620 316 620 c 0,35,36
EndSplineSet
EndChar
StartChar: germandbls
Encoding: 223 223 193
Width: 632
GlyphClass: 1
Flags: W
LayerCount: 2
Fore
SplineSet
298 -12 m 1,1,-1
 279 49 l 1,2,3
 302 45 302 45 328 45 c 0,4,5
 416 45 416 45 465 86 c 128,-1,6
 514 127 514 127 514 206 c 0,7,8
 514 257 514 257 486 296 c 128,-1,9
 458 335 458 335 409.5 356.5 c 128,-1,10
 361 378 361 378 301 378 c 2,11,-1
 289 378 l 1,12,-1
 289 437 l 1,13,14
 359 437 359 437 396.5 465.5 c 128,-1,15
 434 494 434 494 434 535 c 0,16,17
 434 572 434 572 397.5 597 c 128,-1,18
 361 622 361 622 304 622 c 0,19,20
 239 622 239 622 200 584.5 c 128,-1,21
 161 547 161 547 161 465 c 2,22,-1
 161 0 l 1,23,-1
 91 0 l 1,24,-1
 91 468 l 2,25,26
 91 566 91 566 146 623 c 128,-1,27
 201 680 201 680 306 680 c 0,28,29
 362 680 362 680 406 660.5 c 128,-1,30
 450 641 450 641 474 608.5 c 128,-1,31
 498 576 498 576 498 537 c 0,32,33
 498 449 498 449 407 414 c 1,34,35
 486 397 486 397 534.5 341.5 c 128,-1,36
 583 286 583 286 583 205 c 0,37,38
 583 97 583 97 513 41.5 c 128,-1,39
 443 -14 443 -14 332 -14 c 0,40,0
 309 -14 309 -14 298 -12 c 1,1,-1
EndSplineSet
EndChar
StartChar: ae
Encoding: 230 230 122
Width: 632
GlyphClass: 2
Flags: W
AnchorPoint: "Anchor-1" 315 496 basechar 0
AnchorPoint: "Anchor-0" 315 0 basechar 0
LayerCount: 2
Fore
SplineSet
48.5 23 m 128,-1,1
 11 58 11 58 11 119 c 0,2,3
 11 196 11 196 68 237 c 128,-1,4
 125 278 125 278 267 288 c 1,5,-1
 267 319 l 2,6,7
 267 455 267 455 180 455 c 0,8,9
 145 455 145 455 123 432 c 128,-1,10
 101 409 101 409 91 369 c 1,11,-1
 33 387 l 1,12,13
 52 444 52 444 91.5 475.5 c 128,-1,14
 131 507 131 507 182 507 c 0,15,16
 280 507 280 507 309 411 c 1,17,18
 333 457 333 457 368 482 c 128,-1,19
 403 507 403 507 448 507 c 0,20,21
 507 507 507 507 547 469.5 c 128,-1,22
 587 432 587 432 604.5 370.5 c 128,-1,23
 622 309 622 309 617 239 c 1,24,-1
 323 239 l 1,25,26
 323 168 323 168 343.5 123.5 c 128,-1,27
 364 79 364 79 393.5 60 c 128,-1,28
 423 41 423 41 454 41 c 256,29,30
 485 41 485 41 506.5 56.5 c 128,-1,31
 528 72 528 72 547 105 c 1,32,-1
 599 86 l 1,33,34
 546 -12 546 -12 450 -12 c 0,35,36
 395 -12 395 -12 356.5 16 c 128,-1,37
 318 44 318 44 296 95 c 1,38,39
 275 41 275 41 239.5 14.5 c 128,-1,40
 204 -12 204 -12 148 -12 c 0,41,0
 86 -12 86 -12 48.5 23 c 128,-1,1
236 76.5 m 128,-1,43
 267 114 267 114 267 196 c 2,44,-1
 267 239 l 1,45,46
 156 232 156 232 113.5 203.5 c 128,-1,47
 71 175 71 175 71 122 c 0,48,49
 71 85 71 85 93 62 c 128,-1,50
 115 39 115 39 154 39 c 0,51,42
 205 39 205 39 236 76.5 c 128,-1,43
528 404 m 128,-1,53
 501 453 501 453 445 453 c 0,54,55
 399 453 399 453 366 413 c 128,-1,56
 333 373 333 373 325 288 c 1,57,-1
 555 288 l 1,58,52
 555 355 555 355 528 404 c 128,-1,53
EndSplineSet
EndChar
StartChar: ccedilla
Encoding: 231 231 127
Width: 632
GlyphClass: 2
Flags: W
AnchorPoint: "Anchor-1" 347 496 basechar 0
LayerCount: 2
Fore
SplineSet
292 -172 m 128,-1,1
 269 -166 269 -166 252 -156 c 1,2,-1
 267 -127 l 1,3,4
 300 -144 300 -144 331 -144 c 0,5,6
 355 -144 355 -144 367 -132.5 c 128,-1,7
 379 -121 379 -121 379 -108 c 0,8,9
 379 -78 379 -78 338 -78 c 0,10,11
 331 -78 331 -78 317 -81 c 128,-1,12
 303 -84 303 -84 298 -84 c 2,13,-1
 297 -84 l 2,14,15
 282 -84 282 -84 282 -70 c 0,16,17
 282 -64 282 -64 287 -56 c 2,18,-1
 314 -11 l 1,19,20
 249 -5 249 -5 200 29.5 c 128,-1,21
 151 64 151 64 124 120 c 128,-1,22
 97 176 97 176 97 244 c 0,23,24
 97 318 97 318 127 377.5 c 128,-1,25
 157 437 157 437 214 472 c 128,-1,26
 271 507 271 507 348 507 c 0,27,28
 416 507 416 507 467 477 c 128,-1,29
 518 447 518 447 547 395 c 1,30,-1
 486 372 l 1,31,32
 467 408 467 408 431 428 c 128,-1,33
 395 448 395 448 347 448 c 0,34,35
 298 448 298 448 257.5 426 c 128,-1,36
 217 404 217 404 192 358.5 c 128,-1,37
 167 313 167 313 167 246 c 0,38,39
 167 180 167 180 191.5 135.5 c 128,-1,40
 216 91 216 91 256 69 c 128,-1,41
 296 47 296 47 344 47 c 0,42,43
 393 47 393 47 432 66.5 c 128,-1,44
 471 86 471 86 489 119 c 1,45,-1
 551 96 l 1,46,47
 526 53 526 53 475 22 c 128,-1,48
 424 -9 424 -9 354 -12 c 1,49,-1
 331 -48 l 1,50,51
 348 -44 348 -44 363 -44 c 0,52,53
 392 -44 392 -44 410 -60 c 128,-1,54
 428 -76 428 -76 428 -100 c 0,55,56
 428 -129 428 -129 403 -153.5 c 128,-1,57
 378 -178 378 -178 334 -178 c 0,58,0
 315 -178 315 -178 292 -172 c 128,-1,1
EndSplineSet
EndChar
StartChar: oslash
Encoding: 248 248 179
Width: 632
GlyphClass: 2
Flags: W
AnchorPoint: "Anchor-3" 591 496 basechar 0
AnchorPoint: "Anchor-2" 554 10 basechar 0
AnchorPoint: "Anchor-1" 316 496 basechar 0
AnchorPoint: "Anchor-0" 316 0 basechar 0
LayerCount: 2
Fore
SplineSet
231 2 m 128,-1,1
 189 16 189 16 155 44 c 1,2,-1
 109 -5 l 1,3,-1
 77 25 l 1,4,-1
 123 75 l 1,5,6
 67 143 67 143 67 248 c 0,7,8
 67 333 67 333 103 391.5 c 128,-1,9
 139 450 139 450 196 478.5 c 128,-1,10
 253 507 253 507 316 507 c 0,11,12
 359 507 359 507 401 493 c 128,-1,13
 443 479 443 479 477 451 c 1,14,-1
 523 501 l 1,15,-1
 554 471 l 1,16,-1
 508 421 l 1,17,18
 565 354 565 354 565 248 c 0,19,20
 565 162 565 162 529 103.5 c 128,-1,21
 493 45 493 45 436 16.5 c 128,-1,22
 379 -12 379 -12 316 -12 c 0,23,0
 273 -12 273 -12 231 2 c 128,-1,1
404.5 69 m 128,-1,25
 445 91 445 91 469.5 136.5 c 128,-1,26
 494 182 494 182 494 248 c 0,27,28
 494 322 494 322 461 371 c 1,29,-1
 198 90 l 1,30,31
 245 47 245 47 316 47 c 0,32,24
 364 47 364 47 404.5 69 c 128,-1,25
380 437 m 128,-1,34
 349 448 349 448 316 448 c 0,35,36
 268 448 268 448 227.5 426 c 128,-1,37
 187 404 187 404 162.5 359 c 128,-1,38
 138 314 138 314 138 248 c 0,39,40
 138 173 138 173 170 125 c 1,41,-1
 434 405 l 1,42,33
 411 426 411 426 380 437 c 128,-1,34
EndSplineSet
EndChar
StartChar: Aogonek
Encoding: 260 260 9
Width: 632
GlyphClass: 2
Flags: W
AnchorPoint: "Anchor-1" 316 668 basechar 0
LayerCount: 2
Fore
SplineSet
279 668 m 1,0,-1
 354 668 l 1,1,-1
 598 0 l 1,2,3
 559 -11 559 -11 535 -33.5 c 128,-1,4
 511 -56 511 -56 511 -81 c 0,5,6
 511 -102 511 -102 525 -112.5 c 128,-1,7
 539 -123 539 -123 560 -123 c 0,8,9
 574 -123 574 -123 598 -115 c 1,10,-1
 598 -160 l 1,11,12
 576 -169 576 -169 545 -169 c 0,13,14
 503 -169 503 -169 478.5 -148 c 128,-1,15
 454 -127 454 -127 454 -93 c 0,16,17
 454 -31 454 -31 525 5 c 1,18,-1
 470 161 l 1,19,-1
 161 161 l 1,20,-1
 103 0 l 1,21,-1
 34 0 l 1,22,-1
 279 668 l 1,0,-1
450 221 m 1,23,-1
 317 593 l 1,24,-1
 313 593 l 1,25,-1
 180 221 l 1,26,-1
 450 221 l 1,23,-1
EndSplineSet
EndChar
StartChar: aogonek
Encoding: 261 261 119
Width: 632
GlyphClass: 2
Flags: W
AnchorPoint: "Anchor-1" 311 496 basechar 0
LayerCount: 2
Fore
SplineSet
402.5 -148 m 128,-1,1
 378 -127 378 -127 378 -93 c 256,2,3
 378 -59 378 -59 398.5 -34 c 128,-1,4
 419 -9 419 -9 460 11 c 1,5,-1
 444 78 l 1,6,7
 424 39 424 39 378.5 13.5 c 128,-1,8
 333 -12 333 -12 261 -12 c 0,9,10
 181 -12 181 -12 132.5 23.5 c 128,-1,11
 84 59 84 59 84 124 c 0,12,13
 84 212 84 212 169.5 254.5 c 128,-1,14
 255 297 255 297 437 309 c 1,15,-1
 437 319 l 2,16,17
 437 452 437 452 309 452 c 0,18,19
 257 452 257 452 223.5 429 c 128,-1,20
 190 406 190 406 181 368 c 1,21,-1
 114 386 l 1,22,23
 134 444 134 444 186 475.5 c 128,-1,24
 238 507 238 507 310 507 c 0,25,26
 409 507 409 507 456.5 458.5 c 128,-1,27
 504 410 504 410 504 314 c 2,28,-1
 504 193 l 2,29,30
 504 77 504 77 522 0 c 1,31,32
 482 -12 482 -12 458.5 -34 c 128,-1,33
 435 -56 435 -56 435 -81 c 0,34,35
 435 -102 435 -102 449.5 -112.5 c 128,-1,36
 464 -123 464 -123 486 -123 c 0,37,38
 502 -123 502 -123 522 -115 c 1,39,-1
 522 -160 l 1,40,41
 501 -169 501 -169 469 -169 c 0,42,0
 427 -169 427 -169 402.5 -148 c 128,-1,1
392 80 m 128,-1,44
 437 117 437 117 437 196 c 2,45,-1
 437 257 l 1,46,47
 291 247 291 247 222.5 217 c 128,-1,48
 154 187 154 187 154 128 c 0,49,50
 154 89 154 89 185.5 66 c 128,-1,51
 217 43 217 43 272 43 c 0,52,43
 347 43 347 43 392 80 c 128,-1,44
EndSplineSet
EndChar
StartChar: dcaron
Encoding: 271 271 130
Width: 632
GlyphClass: 1
Flags: W
LayerCount: 2
Fore
SplineSet
139.5 19 m 128,-1,1
 92 50 92 50 65.5 108.5 c 128,-1,2
 39 167 39 167 39 248 c 256,3,4
 39 329 39 329 65.5 387.5 c 128,-1,5
 92 446 92 446 139.5 476.5 c 128,-1,6
 187 507 187 507 250 507 c 0,7,8
 301 507 301 507 340.5 481.5 c 128,-1,9
 380 456 380 456 407 411 c 1,10,-1
 407 708 l 1,11,-1
 475 708 l 1,12,-1
 475 185 l 2,13,14
 475 91 475 91 492 0 c 1,15,-1
 428 0 l 1,16,-1
 406 80 l 1,17,18
 344 -12 344 -12 250 -12 c 0,19,0
 187 -12 187 -12 139.5 19 c 128,-1,1
368 100.5 m 128,-1,21
 408 154 408 154 408 247 c 256,22,23
 408 340 408 340 368 394 c 128,-1,24
 328 448 328 448 261 448 c 0,25,26
 191 448 191 448 150 395.5 c 128,-1,27
 109 343 109 343 109 248 c 256,28,29
 109 153 109 153 150 100 c 128,-1,30
 191 47 191 47 261 47 c 0,31,20
 328 47 328 47 368 100.5 c 128,-1,21
551.5 708 m 128,-1,33
 559 720 559 720 574 720 c 0,34,35
 587 720 587 720 595.5 713 c 128,-1,36
 604 706 604 706 604 691 c 0,37,38
 604 683 604 683 593 648 c 2,39,-1
 557 540 l 1,40,-1
 522 540 l 1,41,-1
 540 669 l 2,42,32
 544 696 544 696 551.5 708 c 128,-1,33
EndSplineSet
EndChar
StartChar: dcroat
Encoding: 273 273 131
Width: 632
GlyphClass: 1
Flags: W
LayerCount: 2
Fore
SplineSet
166.5 19 m 128,-1,1
 114 50 114 50 85 108.5 c 128,-1,2
 56 167 56 167 56 248 c 256,3,4
 56 329 56 329 85 387 c 128,-1,5
 114 445 114 445 166.5 476 c 128,-1,6
 219 507 219 507 288 507 c 0,7,8
 349 507 349 507 395 480.5 c 128,-1,9
 441 454 441 454 468 409 c 1,10,-1
 468 559 l 1,11,-1
 304 559 l 1,12,-1
 304 604 l 1,13,-1
 468 604 l 1,14,-1
 468 708 l 1,15,-1
 537 708 l 1,16,-1
 537 604 l 1,17,-1
 601 604 l 1,18,-1
 601 559 l 1,19,-1
 537 559 l 1,20,-1
 537 185 l 2,21,22
 537 91 537 91 554 0 c 1,23,-1
 490 0 l 1,24,-1
 467 81 l 1,25,26
 439 39 439 39 393.5 13.5 c 128,-1,27
 348 -12 348 -12 288 -12 c 0,28,0
 219 -12 219 -12 166.5 19 c 128,-1,1
423 100.5 m 128,-1,30
 469 154 469 154 469 247 c 256,31,32
 469 340 469 340 422.5 394 c 128,-1,33
 376 448 376 448 300 448 c 0,34,35
 221 448 221 448 174 395.5 c 128,-1,36
 127 343 127 343 127 248 c 256,37,38
 127 153 127 153 174 100 c 128,-1,39
 221 47 221 47 300 47 c 0,40,29
 377 47 377 47 423 100.5 c 128,-1,30
EndSplineSet
EndChar
StartChar: Hbar
Encoding: 294 294 38
Width: 632
GlyphClass: 1
Flags: W
LayerCount: 2
Fore
SplineSet
63 514 m 1,0,-1
 9 514 l 1,1,-1
 9 567 l 1,2,-1
 63 567 l 1,3,-1
 63 668 l 1,4,-1
 135 668 l 1,5,-1
 135 567 l 1,6,-1
 497 567 l 1,7,-1
 497 668 l 1,8,-1
 569 668 l 1,9,-1
 569 567 l 1,10,-1
 623 567 l 1,11,-1
 623 514 l 1,12,-1
 569 514 l 1,13,-1
 569 0 l 1,14,-1
 497 0 l 1,15,-1
 497 314 l 1,16,-1
 135 314 l 1,17,-1
 135 0 l 1,18,-1
 63 0 l 1,19,-1
 63 514 l 1,0,-1
497 376 m 1,20,-1
 497 514 l 1,21,-1
 135 514 l 1,22,-1
 135 376 l 1,23,-1
 497 376 l 1,20,-1
EndSplineSet
EndChar
StartChar: Lslash
Encoding: 321 321 55
Width: 632
GlyphClass: 1
Flags: W
LayerCount: 2
Fore
SplineSet
141 256 m 1,0,-1
 31 192 l 1,1,-1
 31 256 l 1,2,-1
 141 321 l 1,3,-1
 141 668 l 1,4,-1
 212 668 l 1,5,-1
 212 362 l 1,6,-1
 407 477 l 1,7,-1
 407 412 l 1,8,-1
 212 298 l 1,9,-1
 212 62 l 1,10,-1
 582 62 l 1,11,-1
 582 0 l 1,12,-1
 141 0 l 1,13,-1
 141 256 l 1,0,-1
EndSplineSet
EndChar
StartChar: Scedilla
Encoding: 350 350 80
Width: 632
GlyphClass: 2
Flags: W
AnchorPoint: "Anchor-1" 316 668 basechar 0
LayerCount: 2
Fore
SplineSet
265 -172 m 128,-1,1
 242 -166 242 -166 225 -156 c 1,2,-1
 239 -127 l 1,3,4
 272 -144 272 -144 304 -144 c 0,5,6
 328 -144 328 -144 339.5 -132.5 c 128,-1,7
 351 -121 351 -121 351 -108 c 0,8,9
 351 -78 351 -78 310 -78 c 0,10,11
 302 -78 302 -78 288.5 -81 c 128,-1,12
 275 -84 275 -84 271 -84 c 2,13,-1
 269 -84 l 2,14,15
 254 -84 254 -84 254 -70 c 0,16,17
 254 -64 254 -64 259 -56 c 2,18,-1
 287 -11 l 1,19,20
 212 -4 212 -4 150.5 35 c 128,-1,21
 89 74 89 74 68 143 c 1,22,-1
 136 168 l 1,23,24
 153 109 153 109 203.5 78.5 c 128,-1,25
 254 48 254 48 316 48 c 0,26,27
 393 48 393 48 442.5 84 c 128,-1,28
 492 120 492 120 492 185 c 0,29,30
 492 230 492 230 460 258 c 128,-1,31
 428 286 428 286 346 306 c 2,32,-1
 256 328 l 2,33,34
 177 347 177 347 130.5 386.5 c 128,-1,35
 84 426 84 426 84 499 c 0,36,37
 84 551 84 551 114.5 592 c 128,-1,38
 145 633 145 633 198.5 656.5 c 128,-1,39
 252 680 252 680 317 680 c 0,40,41
 389 680 389 680 449.5 650 c 128,-1,42
 510 620 510 620 539 561 c 1,43,-1
 471 535 l 1,44,45
 450 575 450 575 406 597.5 c 128,-1,46
 362 620 362 620 316 620 c 0,47,48
 247 620 247 620 202 589 c 128,-1,49
 157 558 157 558 157 499 c 0,50,51
 157 423 157 423 272 394 c 2,52,-1
 363 370 l 2,53,54
 463 346 463 346 513.5 305.5 c 128,-1,55
 564 265 564 265 564 186 c 0,56,57
 564 128 564 128 532 84 c 128,-1,58
 500 40 500 40 446 15 c 128,-1,59
 392 -10 392 -10 327 -12 c 1,60,-1
 304 -48 l 1,61,62
 320 -44 320 -44 335 -44 c 0,63,64
 365 -44 365 -44 383 -60 c 128,-1,65
 401 -76 401 -76 401 -100 c 0,66,67
 401 -129 401 -129 375.5 -153.5 c 128,-1,68
 350 -178 350 -178 307 -178 c 0,69,0
 288 -178 288 -178 265 -172 c 128,-1,1
EndSplineSet
Substitution2: "'locl' Localized Forms in Latin lookup 4 subtable" uni0218
AlternateSubs2: "'aalt' Access All Alternates in Latin lookup 0 subtable" uni0218
EndChar
StartChar: scedilla
Encoding: 351 351 191
Width: 632
GlyphClass: 2
Flags: W
AnchorPoint: "Anchor-1" 315 496 basechar 0
LayerCount: 2
Fore
SplineSet
273 -172 m 128,-1,1
 250 -166 250 -166 233 -156 c 1,2,-1
 248 -127 l 1,3,4
 281 -144 281 -144 312 -144 c 0,5,6
 336 -144 336 -144 348 -132.5 c 128,-1,7
 360 -121 360 -121 360 -108 c 0,8,9
 360 -78 360 -78 319 -78 c 0,10,11
 312 -78 312 -78 298 -81 c 128,-1,12
 284 -84 284 -84 279 -84 c 2,13,-1
 278 -84 l 2,14,15
 263 -84 263 -84 263 -70 c 0,16,17
 263 -64 263 -64 268 -56 c 2,18,-1
 295 -11 l 1,19,20
 229 -5 229 -5 177 26 c 128,-1,21
 125 57 125 57 104 112 c 1,22,-1
 169 137 l 1,23,24
 182 93 182 93 223 69 c 128,-1,25
 264 45 264 45 325 45 c 0,26,27
 388 45 388 45 425 69 c 128,-1,28
 462 93 462 93 462 132 c 256,29,30
 462 171 462 171 432.5 190 c 128,-1,31
 403 209 403 209 343 222 c 2,32,-1
 263 239 l 2,33,34
 192 253 192 253 156 283 c 128,-1,35
 120 313 120 313 120 368 c 0,36,37
 120 431 120 431 175 469 c 128,-1,38
 230 507 230 507 315 507 c 0,39,40
 386 507 386 507 437.5 480.5 c 128,-1,41
 489 454 489 454 510 405 c 1,42,-1
 448 381 l 1,43,44
 435 414 435 414 398.5 431.5 c 128,-1,45
 362 449 362 449 313 449 c 0,46,47
 257 449 257 449 221.5 428.5 c 128,-1,48
 186 408 186 408 186 372 c 0,49,50
 186 342 186 342 210.5 324.5 c 128,-1,51
 235 307 235 307 281 297 c 2,52,-1
 363 280 l 2,53,54
 448 262 448 262 488 230.5 c 128,-1,55
 528 199 528 199 528 137 c 0,56,57
 528 70 528 70 474 30 c 128,-1,58
 420 -10 420 -10 335 -12 c 1,59,-1
 312 -48 l 1,60,61
 329 -44 329 -44 344 -44 c 0,62,63
 373 -44 373 -44 391 -60 c 128,-1,64
 409 -76 409 -76 409 -100 c 0,65,66
 409 -129 409 -129 384 -153.5 c 128,-1,67
 359 -178 359 -178 315 -178 c 0,68,0
 296 -178 296 -178 273 -172 c 128,-1,1
EndSplineSet
Substitution2: "'locl' Localized Forms in Latin lookup 4 subtable" uni0219
AlternateSubs2: "'aalt' Access All Alternates in Latin lookup 0 subtable" uni0219
EndChar
StartChar: uogonek
Encoding: 371 371 205
Width: 632
GlyphClass: 2
Flags: W
AnchorPoint: "Anchor-3" 557 496 basechar 0
AnchorPoint: "Anchor-1" 314 496 basechar 0
LayerCount: 2
Fore
SplineSet
154.5 37.5 m 128,-1,1
 112 87 112 87 112 173 c 2,2,-1
 112 496 l 1,3,-1
 181 496 l 1,4,-1
 181 194 l 2,5,6
 181 123 181 123 208 85 c 128,-1,7
 235 47 235 47 300 47 c 0,8,9
 368 47 368 47 408 92.5 c 128,-1,10
 448 138 448 138 448 222 c 2,11,-1
 448 496 l 1,12,-1
 517 496 l 1,13,-1
 517 0 l 1,14,15
 477 -12 477 -12 453.5 -34 c 128,-1,16
 430 -56 430 -56 430 -81 c 0,17,18
 430 -102 430 -102 444.5 -112.5 c 128,-1,19
 459 -123 459 -123 481 -123 c 0,20,21
 497 -123 497 -123 517 -115 c 1,22,-1
 517 -160 l 1,23,24
 496 -169 496 -169 464 -169 c 0,25,26
 422 -169 422 -169 397.5 -148 c 128,-1,27
 373 -127 373 -127 373 -93 c 0,28,29
 373 -58 373 -58 395 -32.5 c 128,-1,30
 417 -7 417 -7 461 14 c 1,31,-1
 450 79 l 1,32,33
 429 40 429 40 388.5 14 c 128,-1,34
 348 -12 348 -12 287 -12 c 0,35,0
 197 -12 197 -12 154.5 37.5 c 128,-1,1
EndSplineSet
EndChar
StartChar: uni0237
Encoding: 567 567 159
Width: 632
GlyphClass: 2
Flags: W
AnchorPoint: "Anchor-1" 344 496 basechar 0
AnchorPoint: "Anchor-0" 342 -251 basechar 0
LayerCount: 2
Fore
SplineSet
96 -103 m 1,0,-1
 232 -103 l 2,1,2
 273 -103 273 -103 291 -95.5 c 128,-1,3
 309 -88 309 -88 315 -69 c 128,-1,4
 321 -50 321 -50 321 -8 c 2,5,-1
 321 441 l 1,6,-1
 168 441 l 1,7,-1
 168 496 l 1,8,-1
 390 496 l 1,9,-1
 390 -10 l 2,10,11
 390 -71 390 -71 379 -102.5 c 128,-1,12
 368 -134 368 -134 335.5 -148 c 128,-1,13
 303 -162 303 -162 236 -162 c 2,14,-1
 96 -162 l 1,15,-1
 96 -103 l 1,0,-1
EndSplineSet
EndChar
StartChar: gravecomb
Encoding: 768 768 340
Width: 0
GlyphClass: 4
Flags: W
AnchorPoint: "Anchor-5" 367 701 basemark 0
AnchorPoint: "Anchor-5" 367 496 mark 0
AnchorPoint: "Anchor-1" 367 496 mark 0
LayerCount: 2
Fore
SplineSet
249 648.5 m 128,-1,1
 242 658 242 658 242 671 c 256,2,3
 242 684 242 684 250 692.5 c 128,-1,4
 258 701 258 701 272 701 c 0,5,6
 284 701 284 701 293 693.5 c 128,-1,7
 302 686 302 686 315 669 c 2,8,-1
 391 570 l 1,9,-1
 335 570 l 1,10,-1
 278 619 l 2,11,0
 256 639 256 639 249 648.5 c 128,-1,1
EndSplineSet
Substitution2: "Single Substitution lookup 12 subtable" gravecomb.case
Substitution2: "'case' Case-Sensitive Forms in Latin lookup 9 subtable" gravecomb.case
AlternateSubs2: "'aalt' Access All Alternates in Latin lookup 0 subtable" gravecomb.case
EndChar
StartChar: uni0306
Encoding: 774 774 351
Width: 0
GlyphClass: 4
Flags: W
AnchorPoint: "Anchor-5" 316 678 basemark 0
AnchorPoint: "Anchor-5" 316 496 mark 0
AnchorPoint: "Anchor-1" 316 496 mark 0
LayerCount: 2
Fore
SplineSet
237 600 m 128,-1,1
 205 629 205 629 196 673 c 1,2,-1
 243 673 l 1,3,4
 249 651 249 651 268 634.5 c 128,-1,5
 287 618 287 618 316 618 c 256,6,7
 345 618 345 618 364 634.5 c 128,-1,8
 383 651 383 651 389 673 c 1,9,-1
 436 673 l 1,10,11
 427 629 427 629 395 600 c 128,-1,12
 363 571 363 571 316 571 c 256,13,0
 269 571 269 571 237 600 c 128,-1,1
EndSplineSet
Substitution2: "Single Substitution lookup 12 subtable" uni0306.case
Substitution2: "'case' Case-Sensitive Forms in Latin lookup 9 subtable" uni0306.case
AlternateSubs2: "'aalt' Access All Alternates in Latin lookup 0 subtable" uni0306.case
EndChar
StartChar: uni0307
Encoding: 775 775 337
Width: 0
GlyphClass: 4
Flags: W
AnchorPoint: "Anchor-5" 316 692 basemark 0
AnchorPoint: "Anchor-5" 316 496 mark 0
AnchorPoint: "Anchor-1" 316 496 mark 0
LayerCount: 2
Fore
SplineSet
281 607.5 m 128,-1,1
 266 622 266 622 266 643 c 0,2,3
 266 663 266 663 281 677.5 c 128,-1,4
 296 692 296 692 316 692 c 256,5,6
 336 692 336 692 351 677.5 c 128,-1,7
 366 663 366 663 366 643 c 0,8,9
 366 622 366 622 351 607.5 c 128,-1,10
 336 593 336 593 316 593 c 256,11,0
 296 593 296 593 281 607.5 c 128,-1,1
EndSplineSet
Substitution2: "Single Substitution lookup 12 subtable" uni0307.case
Substitution2: "'case' Case-Sensitive Forms in Latin lookup 9 subtable" uni0307.case
AlternateSubs2: "'aalt' Access All Alternates in Latin lookup 0 subtable" uni0307.case
EndChar
StartChar: uni030B
Encoding: 779 779 344
Width: 0
GlyphClass: 4
Flags: W
AnchorPoint: "Anchor-5" 362 700 basemark 0
AnchorPoint: "Anchor-5" 271 496 mark 0
AnchorPoint: "Anchor-1" 271 496 mark 0
LayerCount: 2
Fore
SplineSet
271 692.5 m 128,-1,1
 281 700 281 700 293 700 c 0,2,3
 306 700 306 700 313.5 692 c 128,-1,4
 321 684 321 684 321 672 c 256,5,6
 321 660 321 660 313.5 650 c 128,-1,7
 306 640 306 640 284 620 c 2,8,-1
 227 570 l 1,9,-1
 175 570 l 1,10,-1
 250 669 l 2,11,0
 261 685 261 685 271 692.5 c 128,-1,1
408.5 692.5 m 128,-1,13
 418 700 418 700 430 700 c 0,14,15
 444 700 444 700 451 692.5 c 128,-1,16
 458 685 458 685 458 672 c 0,17,18
 458 660 458 660 451 650 c 128,-1,19
 444 640 444 640 422 620 c 2,20,-1
 365 570 l 1,21,-1
 312 570 l 1,22,-1
 387 669 l 2,23,12
 399 685 399 685 408.5 692.5 c 128,-1,13
EndSplineSet
Substitution2: "Single Substitution lookup 12 subtable" uni030B.case
Substitution2: "'case' Case-Sensitive Forms in Latin lookup 9 subtable" uni030B.case
AlternateSubs2: "'aalt' Access All Alternates in Latin lookup 0 subtable" uni030B.case
EndChar
StartChar: uni0394
Encoding: 916 916 225
Width: 632
GlyphClass: 1
Flags: W
LayerCount: 2
Fore
SplineSet
279 668 m 1,0,-1
 354 668 l 1,1,-1
 598 0 l 1,2,-1
 34 0 l 1,3,-1
 279 668 l 1,0,-1
507 60 m 1,4,-1
 317 593 l 1,5,-1
 313 593 l 1,6,-1
 124 60 l 1,7,-1
 507 60 l 1,4,-1
EndSplineSet
EndChar
StartChar: uni03A9
Encoding: 937 937 226
Width: 632
GlyphClass: 1
Flags: W
LayerCount: 2
Fore
SplineSet
30 58 m 1,0,-1
 194 58 l 1,1,-1
 194 119 l 1,2,3
 122 156 122 156 78.5 228.5 c 128,-1,4
 35 301 35 301 35 384 c 0,5,6
 35 466 35 466 73 533.5 c 128,-1,7
 111 601 111 601 175.5 640.5 c 128,-1,8
 240 680 240 680 316 680 c 256,9,10
 392 680 392 680 456.5 640.5 c 128,-1,11
 521 601 521 601 559 533.5 c 128,-1,12
 597 466 597 466 597 384 c 0,13,14
 597 301 597 301 553.5 228.5 c 128,-1,15
 510 156 510 156 438 119 c 1,16,-1
 438 58 l 1,17,-1
 602 58 l 1,18,-1
 602 0 l 1,19,-1
 377 0 l 1,20,-1
 377 159 l 1,21,22
 448 181 448 181 493 243 c 128,-1,23
 538 305 538 305 538 384 c 0,24,25
 538 450 538 450 508 504.5 c 128,-1,26
 478 559 478 559 427 590.5 c 128,-1,27
 376 622 376 622 316 622 c 256,28,29
 256 622 256 622 205 590.5 c 128,-1,30
 154 559 154 559 124 504.5 c 128,-1,31
 94 450 94 450 94 384 c 0,32,33
 94 305 94 305 139 243 c 128,-1,34
 184 181 184 181 255 159 c 1,35,-1
 255 0 l 1,36,-1
 30 0 l 1,37,-1
 30 58 l 1,0,-1
EndSplineSet
EndChar
StartChar: pi
Encoding: 960 960 228
Width: 632
GlyphClass: 1
Flags: W
LayerCount: 2
Fore
SplineSet
139 441 m 1,0,-1
 65 441 l 1,1,-1
 65 496 l 1,2,-1
 551 496 l 1,3,-1
 551 441 l 1,4,-1
 468 441 l 1,5,-1
 468 110 l 2,6,7
 468 86 468 86 472 75 c 128,-1,8
 476 64 476 64 486 60.5 c 128,-1,9
 496 57 496 57 518 57 c 2,10,-1
 551 57 l 1,11,-1
 551 0 l 1,12,-1
 507 0 l 2,13,14
 460 0 460 0 438.5 10 c 128,-1,15
 417 20 417 20 409.5 45.5 c 128,-1,16
 402 71 402 71 402 126 c 2,17,-1
 402 441 l 1,18,-1
 204 441 l 1,19,-1
 204 0 l 1,20,-1
 139 0 l 1,21,-1
 139 441 l 1,0,-1
EndSplineSet
EndChar
StartChar: emdash
Encoding: 8212 8212 266
Width: 632
GlyphClass: 1
Flags: W
LayerCount: 2
Fore
SplineSet
34 279 m 1,0,-1
 598 279 l 1,1,-1
 598 215 l 1,2,-1
 34 215 l 1,3,-1
 34 279 l 1,0,-1
EndSplineSet
EndChar
StartChar: quoteleft
Encoding: 8216 8216 278
Width: 632
GlyphClass: 1
Flags: W
LayerCount: 2
Fore
SplineSet
272.5 445.5 m 128,-1,1
 255 463 255 463 255 489 c 0,2,3
 255 503 255 503 262 519 c 2,4,-1
 323 678 l 1,5,-1
 373 678 l 1,6,-1
 322 549 l 1,7,8
 345 546 345 546 360.5 529 c 128,-1,9
 376 512 376 512 376 489 c 0,10,11
 376 464 376 464 358.5 446 c 128,-1,12
 341 428 341 428 315 428 c 0,13,0
 290 428 290 428 272.5 445.5 c 128,-1,1
EndSplineSet
EndChar
StartChar: quotedblleft
Encoding: 8220 8220 276
Width: 632
GlyphClass: 1
Flags: W
LayerCount: 2
Fore
SplineSet
367.5 437.5 m 128,-1,1
 350 455 350 455 350 480 c 0,2,3
 350 494 350 494 357 511 c 2,4,-1
 418 668 l 1,5,-1
 467 668 l 1,6,-1
 417 539 l 1,7,8
 439 537 439 537 454.5 520 c 128,-1,9
 470 503 470 503 470 480 c 0,10,11
 470 455 470 455 452.5 437.5 c 128,-1,12
 435 420 435 420 410 420 c 256,13,0
 385 420 385 420 367.5 437.5 c 128,-1,1
179 437.5 m 128,-1,15
 162 455 162 455 162 480 c 0,16,17
 162 494 162 494 169 510 c 2,18,-1
 229 668 l 1,19,-1
 279 668 l 1,20,-1
 229 539 l 1,21,22
 251 537 251 537 266 520 c 128,-1,23
 281 503 281 503 281 480 c 0,24,25
 281 455 281 455 263.5 437.5 c 128,-1,26
 246 420 246 420 221 420 c 256,27,14
 196 420 196 420 179 437.5 c 128,-1,15
EndSplineSet
EndChar
StartChar: quotedblright
Encoding: 8221 8221 277
Width: 632
GlyphClass: 1
Flags: W
LayerCount: 2
Fore
SplineSet
366 580 m 128,-1,1
 351 597 351 597 351 620 c 0,2,3
 351 646 351 646 368.5 663 c 128,-1,4
 386 680 386 680 411 680 c 256,5,6
 436 680 436 680 453 662.5 c 128,-1,7
 470 645 470 645 470 620 c 0,8,9
 470 606 470 606 463 590 c 2,10,-1
 403 432 l 1,11,-1
 353 432 l 1,12,-1
 403 561 l 1,13,0
 381 563 381 563 366 580 c 128,-1,1
177.5 580 m 128,-1,15
 162 597 162 597 162 620 c 0,16,17
 162 645 162 645 179.5 662.5 c 128,-1,18
 197 680 197 680 222 680 c 256,19,20
 247 680 247 680 264.5 662.5 c 128,-1,21
 282 645 282 645 282 620 c 0,22,23
 282 606 282 606 275 590 c 2,24,-1
 214 432 l 1,25,-1
 165 432 l 1,26,-1
 215 561 l 1,27,14
 193 563 193 563 177.5 580 c 128,-1,15
EndSplineSet
EndChar
StartChar: quotedblbase
Encoding: 8222 8222 275
Width: 632
GlyphClass: 1
Flags: W
LayerCount: 2
Fore
SplineSet
177.5 6.5 m 128,-1,1
 162 24 162 24 162 46 c 0,2,3
 162 71 162 71 179.5 88.5 c 128,-1,4
 197 106 197 106 222 106 c 0,5,6
 248 106 248 106 265 89 c 128,-1,7
 282 72 282 72 282 46 c 0,8,9
 282 34 282 34 275 16 c 2,10,-1
 214 -142 l 1,11,-1
 165 -142 l 1,12,-1
 215 -13 l 1,13,0
 193 -11 193 -11 177.5 6.5 c 128,-1,1
366 6.5 m 128,-1,15
 351 24 351 24 351 47 c 0,16,17
 351 72 351 72 368.5 89 c 128,-1,18
 386 106 386 106 411 106 c 256,19,20
 436 106 436 106 453 89 c 128,-1,21
 470 72 470 72 470 47 c 0,22,23
 470 34 470 34 463 16 c 2,24,-1
 403 -141 l 1,25,-1
 353 -141 l 1,26,-1
 403 -13 l 1,27,14
 381 -11 381 -11 366 6.5 c 128,-1,15
EndSplineSet
EndChar
StartChar: daggerdbl
Encoding: 8225 8225 300
Width: 632
GlyphClass: 1
Flags: W
LayerCount: 2
Fore
SplineSet
286 171 m 1,0,-1
 93 171 l 1,1,-1
 93 240 l 1,2,-1
 286 240 l 1,3,-1
 286 427 l 1,4,-1
 93 427 l 1,5,-1
 93 496 l 1,6,-1
 286 496 l 1,7,-1
 286 668 l 1,8,-1
 347 668 l 1,9,-1
 347 496 l 1,10,-1
 539 496 l 1,11,-1
 539 427 l 1,12,-1
 347 427 l 1,13,-1
 347 240 l 1,14,-1
 539 240 l 1,15,-1
 539 171 l 1,16,-1
 347 171 l 1,17,-1
 347 0 l 1,18,-1
 286 0 l 1,19,-1
 286 171 l 1,0,-1
EndSplineSet
EndChar
StartChar: ellipsis
Encoding: 8230 8230 253
Width: 632
GlyphClass: 1
Flags: W
LayerCount: 2
Fore
SplineSet
65 5 m 128,-1,1
 48 22 48 22 48 47 c 0,2,3
 48 71 48 71 65 88 c 128,-1,4
 82 105 82 105 107 105 c 256,5,6
 132 105 132 105 149 88 c 128,-1,7
 166 71 166 71 166 47 c 0,8,9
 166 22 166 22 149 5 c 128,-1,10
 132 -12 132 -12 107 -12 c 256,11,0
 82 -12 82 -12 65 5 c 128,-1,1
274 5 m 128,-1,13
 257 22 257 22 257 47 c 0,14,15
 257 71 257 71 274 88 c 128,-1,16
 291 105 291 105 316 105 c 256,17,18
 341 105 341 105 358 88 c 128,-1,19
 375 71 375 71 375 47 c 0,20,21
 375 22 375 22 358 5 c 128,-1,22
 341 -12 341 -12 316 -12 c 256,23,12
 291 -12 291 -12 274 5 c 128,-1,13
483 5 m 128,-1,25
 466 22 466 22 466 47 c 0,26,27
 466 71 466 71 483 88 c 128,-1,28
 500 105 500 105 525 105 c 256,29,30
 550 105 550 105 567 88 c 128,-1,31
 584 71 584 71 584 47 c 0,32,33
 584 22 584 22 567 5 c 128,-1,34
 550 -12 550 -12 525 -12 c 256,35,24
 500 -12 500 -12 483 5 c 128,-1,25
EndSplineSet
EndChar
StartChar: Euro
Encoding: 8364 8364 305
Width: 632
GlyphClass: 1
Flags: W
LayerCount: 2
Fore
SplineSet
194 56.5 m 128,-1,1
 129 126 129 126 111 243 c 1,2,-1
 25 243 l 1,3,-1
 48 287 l 1,4,-1
 106 287 l 1,5,6
 104 319 104 319 104 334 c 0,7,8
 104 350 104 350 106 380 c 1,9,-1
 25 380 l 1,10,-1
 48 425 l 1,11,-1
 112 425 l 1,12,13
 126 508 126 508 163.5 566 c 128,-1,14
 201 624 201 624 254.5 653.5 c 128,-1,15
 308 683 308 683 369 683 c 0,16,17
 443 683 443 683 502.5 642.5 c 128,-1,18
 562 602 562 602 592 529 c 1,19,-1
 532 507 l 1,20,21
 510 560 510 560 469 591 c 128,-1,22
 428 622 428 622 367 622 c 0,23,24
 293 622 293 622 243 572.5 c 128,-1,25
 193 523 193 523 178 425 c 1,26,-1
 434 425 l 1,27,-1
 411 380 l 1,28,-1
 173 380 l 1,29,30
 171 350 171 350 171 334 c 0,31,32
 171 319 171 319 173 287 c 1,33,-1
 370 287 l 1,34,-1
 348 243 l 1,35,-1
 180 243 l 1,36,37
 197 155 197 155 245.5 101.5 c 128,-1,38
 294 48 294 48 366 48 c 0,39,40
 428 48 428 48 470.5 78.5 c 128,-1,41
 513 109 513 109 536 160 c 1,42,-1
 595 138 l 1,43,44
 564 64 564 64 503.5 25.5 c 128,-1,45
 443 -13 443 -13 364 -13 c 0,46,0
 259 -13 259 -13 194 56.5 c 128,-1,1
EndSplineSet
EndChar
StartChar: uni2113
Encoding: 8467 8467 299
Width: 632
GlyphClass: 1
Flags: W
LayerCount: 2
Fore
SplineSet
251.5 24.5 m 128,-1,1
 222 61 222 61 222 138 c 2,2,-1
 222 197 l 1,3,-1
 155 146 l 1,4,-1
 155 213 l 1,5,-1
 222 265 l 1,6,-1
 222 515 l 2,7,8
 222 590 222 590 252 635 c 128,-1,9
 282 680 282 680 346 680 c 0,10,11
 402 680 402 680 432.5 641 c 128,-1,12
 463 602 463 602 463 540 c 0,13,14
 463 453 463 453 420.5 385 c 128,-1,15
 378 317 378 317 287 244 c 1,16,-1
 287 144 l 2,17,18
 287 92 287 92 306.5 69 c 128,-1,19
 326 46 326 46 356 46 c 0,20,21
 401 46 401 46 448 88 c 1,22,-1
 478 39 l 1,23,24
 455 16 455 16 421.5 2 c 128,-1,25
 388 -12 388 -12 353 -12 c 0,26,0
 281 -12 281 -12 251.5 24.5 c 128,-1,1
374.5 419.5 m 128,-1,28
 403 477 403 477 403 539 c 0,29,30
 403 582 403 582 388 604 c 128,-1,31
 373 626 373 626 346 626 c 0,32,33
 287 626 287 626 287 523 c 2,34,-1
 287 316 l 1,35,27
 346 362 346 362 374.5 419.5 c 128,-1,28
EndSplineSet
EndChar
StartChar: trademark
Encoding: 8482 8482 294
Width: 632
GlyphClass: 1
Flags: W
LayerCount: 2
Fore
SplineSet
101 625 m 1,0,-1
 11 625 l 1,1,-1
 11 668 l 1,2,-1
 240 668 l 1,3,-1
 240 625 l 1,4,-1
 150 625 l 1,5,-1
 150 343 l 1,6,-1
 101 343 l 1,7,-1
 101 625 l 1,0,-1
287 668 m 1,8,-1
 362 668 l 1,9,-1
 452 406 l 1,10,-1
 456 406 l 1,11,-1
 546 668 l 1,12,-1
 620 668 l 1,13,-1
 620 343 l 1,14,-1
 571 343 l 1,15,-1
 571 608 l 1,16,-1
 567 608 l 1,17,-1
 477 343 l 1,18,-1
 431 343 l 1,19,-1
 339 608 l 1,20,-1
 335 608 l 1,21,-1
 335 343 l 1,22,-1
 287 343 l 1,23,-1
 287 668 l 1,8,-1
EndSplineSet
EndChar
StartChar: partialdiff
Encoding: 8706 8706 331
Width: 632
GlyphClass: 1
Flags: W
LayerCount: 2
Fore
SplineSet
206 15.5 m 128,-1,1
 152 43 152 43 117.5 100 c 128,-1,2
 83 157 83 157 83 242 c 0,3,4
 83 325 83 325 115.5 382 c 128,-1,5
 148 439 148 439 199.5 466 c 128,-1,6
 251 493 251 493 308 493 c 0,7,8
 371 493 371 493 417 464.5 c 128,-1,9
 463 436 463 436 482 385 c 1,10,11
 473 475 473 475 422 528.5 c 128,-1,12
 371 582 371 582 301 602.5 c 128,-1,13
 231 623 231 623 160 619 c 1,14,-1
 160 680 l 1,15,16
 380 680 380 680 464.5 570 c 128,-1,17
 549 460 549 460 549 278 c 0,18,19
 549 170 549 170 513.5 105 c 128,-1,20
 478 40 478 40 426 14 c 128,-1,21
 374 -12 374 -12 318 -12 c 0,22,0
 260 -12 260 -12 206 15.5 c 128,-1,1
394 68 m 128,-1,24
 431 88 431 88 454 131 c 128,-1,25
 477 174 477 174 477 240 c 0,26,27
 477 305 477 305 454 348.5 c 128,-1,28
 431 392 431 392 394 412 c 128,-1,29
 357 432 357 432 316 432 c 256,30,31
 275 432 275 432 238 412 c 128,-1,32
 201 392 201 392 177.5 348.5 c 128,-1,33
 154 305 154 305 154 240 c 0,34,35
 154 174 154 174 177.5 131 c 128,-1,36
 201 88 201 88 238 68 c 128,-1,37
 275 48 275 48 316 48 c 256,38,23
 357 48 357 48 394 68 c 128,-1,24
EndSplineSet
EndChar
StartChar: summation
Encoding: 8721 8721 329
Width: 632
GlyphClass: 1
Flags: W
LayerCount: 2
Fore
SplineSet
84 -95 m 1,0,-1
 332 253 l 1,1,-1
 84 601 l 1,2,-1
 84 668 l 1,3,-1
 548 668 l 1,4,-1
 548 601 l 1,5,-1
 165 601 l 1,6,-1
 411 253 l 1,7,-1
 165 -95 l 1,8,-1
 548 -95 l 1,9,-1
 548 -162 l 1,10,-1
 84 -162 l 1,11,-1
 84 -95 l 1,0,-1
EndSplineSet
EndChar
StartChar: radical
Encoding: 8730 8730 330
Width: 632
GlyphClass: 1
Flags: W
LayerCount: 2
Fore
SplineSet
154 161 m 1,0,-1
 62 161 l 1,1,-1
 62 225 l 1,2,-1
 203 225 l 1,3,-1
 327 -74 l 1,4,-1
 533 668 l 1,5,-1
 605 668 l 1,6,-1
 371 -162 l 1,7,-1
 289 -162 l 1,8,-1
 154 161 l 1,0,-1
EndSplineSet
EndChar
StartChar: infinity
Encoding: 8734 8734 326
Width: 632
GlyphClass: 1
Flags: W
LayerCount: 2
Fore
SplineSet
50 149 m 128,-1,1
 13 190 13 190 13 256 c 256,2,3
 13 322 13 322 50 363 c 128,-1,4
 87 404 87 404 153 404 c 0,5,6
 198 404 198 404 234 379 c 128,-1,7
 270 354 270 354 316 305 c 1,8,9
 362 354 362 354 398 379 c 128,-1,10
 434 404 434 404 479 404 c 0,11,12
 545 404 545 404 582 363 c 128,-1,13
 619 322 619 322 619 256 c 256,14,15
 619 190 619 190 582 149 c 128,-1,16
 545 108 545 108 479 108 c 0,17,18
 434 108 434 108 398 133 c 128,-1,19
 362 158 362 158 316 207 c 1,20,21
 270 158 270 158 234 133 c 128,-1,22
 198 108 198 108 153 108 c 0,23,0
 87 108 87 108 50 149 c 128,-1,1
212 184 m 128,-1,25
 238 202 238 202 281 256 c 1,26,27
 238 310 238 310 212 328 c 128,-1,28
 186 346 186 346 153 346 c 0,29,30
 117 346 117 346 94.5 320 c 128,-1,31
 72 294 72 294 72 256 c 256,32,33
 72 218 72 218 94.5 192 c 128,-1,34
 117 166 117 166 153 166 c 0,35,24
 186 166 186 166 212 184 c 128,-1,25
537.5 192 m 128,-1,37
 560 218 560 218 560 256 c 256,38,39
 560 294 560 294 537.5 320 c 128,-1,40
 515 346 515 346 479 346 c 0,41,42
 446 346 446 346 420.5 328 c 128,-1,43
 395 310 395 310 351 256 c 1,44,45
 395 202 395 202 420.5 184 c 128,-1,46
 446 166 446 166 479 166 c 0,47,36
 515 166 515 166 537.5 192 c 128,-1,37
EndSplineSet
EndChar
StartChar: integral
Encoding: 8747 8747 327
Width: 632
GlyphClass: 1
Flags: W
LayerCount: 2
Fore
SplineSet
168.5 -155.5 m 128,-1,1
 147 -139 147 -139 147 -115 c 0,2,3
 147 -95 147 -95 160.5 -81.5 c 128,-1,4
 174 -68 174 -68 195 -68 c 0,5,6
 218 -68 218 -68 231.5 -82 c 128,-1,7
 245 -96 245 -96 245 -118 c 0,8,9
 245 -127 245 -127 242 -134 c 1,10,11
 257 -132 257 -132 268 -110.5 c 128,-1,12
 279 -89 279 -89 280 -38 c 2,13,-1
 284 492 l 2,14,15
 285 601 285 601 317.5 641.5 c 128,-1,16
 350 682 350 682 406 682 c 0,17,18
 443 682 443 682 464.5 665 c 128,-1,19
 486 648 486 648 486 624 c 0,20,21
 486 604 486 604 472.5 591 c 128,-1,22
 459 578 459 578 438 578 c 0,23,24
 415 578 415 578 401.5 591.5 c 128,-1,25
 388 605 388 605 388 627 c 0,26,27
 388 637 388 637 391 644 c 1,28,29
 354 637 354 637 353 547 c 2,30,-1
 349 17 l 2,31,32
 348 -92 348 -92 315.5 -132 c 128,-1,33
 283 -172 283 -172 227 -172 c 0,34,0
 190 -172 190 -172 168.5 -155.5 c 128,-1,1
EndSplineSet
EndChar
StartChar: approxequal
Encoding: 8776 8776 322
Width: 632
GlyphClass: 1
Flags: W
LayerCount: 2
Fore
SplineSet
114.5 195 m 128,-1,1
 145 226 145 226 201 226 c 0,2,3
 229 226 229 226 257.5 217 c 128,-1,4
 286 208 286 208 326 192 c 256,5,6
 366 176 366 176 388.5 169 c 128,-1,7
 411 162 411 162 431 162 c 0,8,9
 490 162 490 162 498 232 c 1,10,-1
 555 218 l 1,11,12
 540 101 540 101 431 101 c 0,13,14
 404 101 404 101 375 110 c 128,-1,15
 346 119 346 119 306 135 c 256,16,17
 266 151 266 151 244 158 c 128,-1,18
 222 165 222 165 201 165 c 0,19,20
 141 165 141 165 135 95 c 1,21,-1
 77 109 l 1,22,0
 84 164 84 164 114.5 195 c 128,-1,1
114.5 384 m 128,-1,24
 145 415 145 415 201 415 c 0,25,26
 229 415 229 415 257.5 406 c 128,-1,27
 286 397 286 397 326 381 c 256,28,29
 366 365 366 365 388.5 358 c 128,-1,30
 411 351 411 351 431 351 c 0,31,32
 490 351 490 351 498 421 c 1,33,-1
 555 407 l 1,34,35
 548 352 548 352 518 321 c 128,-1,36
 488 290 488 290 431 290 c 0,37,38
 404 290 404 290 375 299 c 128,-1,39
 346 308 346 308 306 324 c 256,40,41
 266 340 266 340 244 347 c 128,-1,42
 222 354 222 354 201 354 c 0,43,44
 141 354 141 354 135 284 c 1,45,-1
 77 298 l 1,46,23
 84 353 84 353 114.5 384 c 128,-1,24
EndSplineSet
EndChar
StartChar: lessequal
Encoding: 8804 8804 320
Width: 632
GlyphClass: 1
Flags: W
LayerCount: 2
Fore
SplineSet
86 265 m 1,0,-1
 86 327 l 1,1,-1
 547 487 l 1,2,-1
 547 416 l 1,3,-1
 179 295 l 1,4,-1
 547 176 l 1,5,-1
 547 106 l 1,6,-1
 86 265 l 1,0,-1
86 64 m 1,7,-1
 547 64 l 1,8,-1
 547 0 l 1,9,-1
 86 0 l 1,10,-1
 86 64 l 1,7,-1
EndSplineSet
EndChar
StartChar: musicalnote
Encoding: 9834 9834 287
Width: 632
GlyphClass: 1
Flags: W
LayerCount: 2
Fore
SplineSet
121 21 m 128,-1,1
 91 52 91 52 91 96 c 256,2,3
 91 140 91 140 122 171 c 128,-1,4
 153 202 153 202 197 202 c 0,5,6
 236 202 236 202 262 179 c 1,7,-1
 262 668 l 1,8,-1
 304 668 l 1,9,10
 307 636 307 636 321 611 c 128,-1,11
 335 586 335 586 358 564.5 c 128,-1,12
 381 543 381 543 423 509 c 0,13,14
 479 464 479 464 509.5 423.5 c 128,-1,15
 540 383 540 383 540 330 c 0,16,17
 540 307 540 307 527.5 277 c 128,-1,18
 515 247 515 247 489 216 c 1,19,-1
 485 217 l 1,20,21
 474 298 474 298 425.5 352.5 c 128,-1,22
 377 407 377 407 304 434 c 1,23,-1
 304 120 l 2,24,25
 304 57 304 57 273 23.5 c 128,-1,26
 242 -10 242 -10 194 -10 c 0,27,0
 151 -10 151 -10 121 21 c 128,-1,1
EndSplineSet
EndChar
StartChar: uni0307.case
Encoding: 65541 -1 338
Width: 0
GlyphClass: 4
Flags: W
AnchorPoint: "Anchor-5" 316 834 basemark 0
AnchorPoint: "Anchor-5" 316 668 mark 0
AnchorPoint: "Anchor-1" 316 668 mark 0
LayerCount: 2
Fore
SplineSet
281 748.5 m 128,-1,1
 266 763 266 763 266 784 c 0,2,3
 266 804 266 804 281 819 c 128,-1,4
 296 834 296 834 316 834 c 256,5,6
 336 834 336 834 351 819 c 128,-1,7
 366 804 366 804 366 784 c 0,8,9
 366 763 366 763 351 748.5 c 128,-1,10
 336 734 336 734 316 734 c 256,11,0
 296 734 296 734 281 748.5 c 128,-1,1
EndSplineSet
EndChar
StartChar: uni030A.case
Encoding: 65550 -1 354
Width: 0
GlyphClass: 4
Flags: W
AnchorPoint: "Anchor-5" 316 839 basemark 0
AnchorPoint: "Anchor-5" 316 668 mark 0
AnchorPoint: "Anchor-1" 316 668 mark 0
LayerCount: 2
Fore
SplineSet
245 667.5 m 128,-1,1
 215 697 215 697 215 739 c 0,2,3
 215 780 215 780 245 809.5 c 128,-1,4
 275 839 275 839 316 839 c 0,5,6
 358 839 358 839 387.5 809.5 c 128,-1,7
 417 780 417 780 417 739 c 0,8,9
 417 697 417 697 387.5 667.5 c 128,-1,10
 358 638 358 638 316 638 c 0,11,0
 275 638 275 638 245 667.5 c 128,-1,1
354 700.5 m 128,-1,13
 370 716 370 716 370 738 c 0,14,15
 370 761 370 761 354.5 776.5 c 128,-1,16
 339 792 339 792 316 792 c 0,17,18
 294 792 294 792 278 776 c 128,-1,19
 262 760 262 760 262 738 c 256,20,21
 262 716 262 716 278 700.5 c 128,-1,22
 294 685 294 685 316 685 c 256,23,12
 338 685 338 685 354 700.5 c 128,-1,13
EndSplineSet
EndChar
StartChar: uni030C.alt
Encoding: 65546 -1 346
Width: 0
GlyphClass: 4
Flags: W
AnchorPoint: "Anchor-3" 251 496 mark 0
LayerCount: 2
Fore
SplineSet
304 706.5 m 128,-1,1
 312 718 312 718 329 718 c 0,2,3
 343 718 343 718 352.5 710.5 c 128,-1,4
 362 703 362 703 362 688 c 0,5,6
 362 676 362 676 350 647 c 2,7,-1
 311 538 l 1,8,-1
 271 538 l 1,9,-1
 291 668 l 2,10,0
 296 695 296 695 304 706.5 c 128,-1,1
EndSplineSet
EndChar
StartChar: uni0328.case
Encoding: 65554 -1 363
Width: 0
GlyphClass: 4
Flags: W
AnchorPoint: "Anchor-2" 388 10 mark 0
LayerCount: 2
Fore
SplineSet
268.5 -148 m 128,-1,1
 244 -127 244 -127 244 -93 c 0,2,3
 244 -29 244 -29 325 10 c 1,4,-1
 388 0 l 1,5,6
 349 -11 349 -11 325.5 -33.5 c 128,-1,7
 302 -56 302 -56 302 -81 c 0,8,9
 302 -102 302 -102 316 -112.5 c 128,-1,10
 330 -123 330 -123 351 -123 c 0,11,12
 364 -123 364 -123 388 -115 c 1,13,-1
 388 -160 l 1,14,15
 367 -169 367 -169 335 -169 c 0,16,0
 293 -169 293 -169 268.5 -148 c 128,-1,1
EndSplineSet
EndChar
StartChar: zero.zero
Encoding: 65539 -1 239
Width: 632
GlyphClass: 1
Flags: W
LayerCount: 2
Fore
SplineSet
127 77 m 128,-1,1
 59 167 59 167 59 335 c 256,2,3
 59 503 59 503 127 593 c 128,-1,4
 195 683 195 683 316 683 c 256,5,6
 437 683 437 683 505 593 c 128,-1,7
 573 503 573 503 573 335 c 256,8,9
 573 167 573 167 505 77 c 128,-1,10
 437 -13 437 -13 316 -13 c 256,11,0
 195 -13 195 -13 127 77 c 128,-1,1
453.5 115 m 128,-1,13
 504 185 504 185 504 335 c 0,14,15
 504 480 504 480 453.5 552.5 c 128,-1,16
 403 625 403 625 316 625 c 256,17,18
 229 625 229 625 178.5 552.5 c 128,-1,19
 128 480 128 480 128 335 c 0,20,21
 128 185 128 185 178.5 115 c 128,-1,22
 229 45 229 45 316 45 c 256,23,12
 403 45 403 45 453.5 115 c 128,-1,13
276.5 294.5 m 128,-1,25
 260 311 260 311 260 335 c 0,26,27
 260 358 260 358 276.5 374.5 c 128,-1,28
 293 391 293 391 316 391 c 256,29,30
 339 391 339 391 356 374.5 c 128,-1,31
 373 358 373 358 373 335 c 0,32,33
 373 311 373 311 356 294.5 c 128,-1,34
 339 278 339 278 316 278 c 256,35,24
 293 278 293 278 276.5 294.5 c 128,-1,25
EndSplineSet
EndChar
